<svg width="24" height="15" viewBox="0 0 24 15" fill="none" xmlns="http://www.w3.org/2000/svg">
<path fill-rule="evenodd" clip-rule="evenodd" d="M8.73144 3.83173C8.75181 3.86656 8.71137 3.89199 8.69152 3.91434C8.45446 4.18121 8.2392 4.46474 8.0435 4.76278C7.72406 5.24931 7.48809 5.76898 7.39871 6.35073C7.2974 7.01008 7.6232 7.56422 8.25833 7.78304C9.16229 8.09451 9.97623 7.93349 10.7003 7.31126C10.7331 7.28306 10.7731 7.26082 10.7991 7.22752C11.04 6.91984 11.3727 6.76326 11.7332 6.64719C11.9169 6.58804 12.0967 6.51637 12.2773 6.44781C12.3297 6.4279 12.3692 6.43385 12.4139 6.4705L14.5789 8.24029C15.109 8.67548 15.6384 9.11154 16.1621 9.55423C16.5738 9.90219 17 10.2346 17.3702 10.6291C17.5936 10.8671 17.8008 11.12 17.9924 11.3838C18.1273 11.5696 18.2092 11.7824 18.1855 12.02C18.1638 12.2383 18.0444 12.3897 17.8462 12.4774C17.6543 12.5623 17.4718 12.5368 17.3148 12.3994C17.1772 12.279 17.0485 12.1482 16.919 12.0189C16.1267 11.2285 15.335 10.4375 14.544 9.64589C14.3956 9.49738 14.232 9.4146 14.0142 9.47603C13.717 9.55979 13.5515 9.96094 13.7537 10.2086C13.7874 10.2498 13.8182 10.2939 13.8556 10.3314C14.6447 11.1202 15.4341 11.9087 16.2245 12.6963C16.3259 12.7973 16.4299 12.8959 16.5379 12.9897C16.597 13.0409 16.5924 13.0842 16.5541 13.1438C16.2312 13.646 15.6164 13.7161 15.1938 13.2947L12.9745 11.0769C12.9299 11.0324 12.8827 10.9896 12.8324 10.9516C12.634 10.802 12.3829 10.8223 12.207 10.9999C12.0312 11.1774 12.0139 11.4265 12.166 11.6254C12.2042 11.6755 12.2471 11.7225 12.2917 11.7671L14.3429 13.8138C14.4984 13.969 14.5107 14.047 14.4111 14.2378C14.1845 14.6717 13.6694 14.7607 13.3211 14.4167C12.7051 13.8081 12.0952 13.1933 11.4837 12.5801C11.3563 12.4523 11.2249 12.3405 11.0273 12.3504C10.6902 12.3674 10.4733 12.7126 10.6094 13.0203C10.6434 13.0973 10.6902 13.1654 10.7499 13.225C11.1861 13.6602 11.6214 14.0963 12.0586 14.5305C12.1079 14.5794 12.1674 14.618 12.222 14.6616C12.2494 14.6834 12.2708 14.7079 12.256 14.7467C12.2431 14.7804 12.2146 14.7883 12.1834 14.7886C12.0207 14.7899 11.8592 14.8011 11.7004 14.7395C11.3687 14.611 11.017 14.5272 10.7235 14.3146C10.4458 14.1134 10.1751 13.9027 9.90243 13.6947C8.64503 12.7358 7.40199 11.7585 6.16382 10.7749C5.9205 10.5817 5.71556 10.3488 5.50944 10.1177C5.45185 10.0532 5.39426 9.98837 5.33283 9.92757C5.24127 9.83692 5.22908 9.73461 5.26798 9.61598C5.47232 8.99273 5.6655 8.36601 5.84344 7.7347C6.1678 6.58402 6.4538 5.42381 6.70509 4.25504C6.72818 4.14765 6.75201 4.04038 6.77326 3.93263C6.78917 3.85212 6.83005 3.8155 6.91757 3.8168C7.20737 3.82096 7.49725 3.81836 7.78711 3.81828L8.6467 3.81864C8.67591 3.8187 8.71631 3.80583 8.73144 3.83173ZM23.4587 1.80269C23.5146 1.80025 23.5718 1.80787 23.6272 1.81791C23.831 1.85491 23.9423 1.96824 23.9751 2.1745C23.9903 2.26959 24.0001 2.36529 24 2.46248L23.9991 4.62991L23.9991 6.79735C23.9991 8.24231 23.9987 9.68726 23.9999 11.1322C24 11.226 23.99 11.3183 23.9763 11.4103C23.9473 11.6046 23.8462 11.7151 23.6535 11.757C23.5529 11.7788 23.45 11.7904 23.3464 11.7905C22.4369 11.7909 21.5274 11.7916 20.6179 11.7915C20.2851 11.7915 20.0553 11.6169 19.9672 11.2954C19.5384 9.73007 19.0042 8.19991 18.4233 6.68558C18.1455 5.96152 17.8784 5.23296 17.5593 4.52546C17.4061 4.18566 17.2459 3.84893 17.0861 3.51213C16.9212 3.16441 17.0152 2.90508 17.3755 2.77116C18.2678 2.43953 19.1842 2.19779 20.1268 2.05833C20.7495 1.9662 21.376 1.9174 22.0038 1.87714C22.4885 1.84605 22.9736 1.82396 23.4587 1.80269ZM0.539389 0.80036C0.763659 0.794918 0.984187 0.830775 1.20608 0.849864C1.57061 0.881239 1.93419 0.923899 2.29833 0.960456C2.95803 1.02667 3.61201 1.12663 4.26029 1.26802C4.74959 1.37473 5.20821 1.55644 5.65167 1.7839C5.95542 1.93972 6.05415 2.11794 5.9997 2.4571C5.78906 3.76923 5.53195 5.07088 5.16157 6.34942C4.79385 7.61884 4.44524 8.8938 4.08799 10.1663C4.0691 10.2335 4.04773 10.3002 4.02788 10.3672C3.93311 10.6872 3.81927 10.7777 3.48605 10.7906C3.36961 10.7952 3.25288 10.7923 3.13626 10.7924C2.28999 10.7935 1.44369 10.7937 0.597417 10.796C0.409305 10.7965 0.243224 10.7503 0.109479 10.609C0.0394843 10.535 0.00418702 10.4564 0.00438712 10.3509C0.00704842 8.84251 0.00620801 7.33412 0.00608795 5.82572C0.00608795 4.33396 0.0137717 2.84214 2.23268e-05 1.35052C-0.00293646 1.02605 0.288746 0.806423 0.539389 0.80036ZM13.0428 3.01134C13.6196 3.19824 14.1804 3.43001 14.7449 3.65054C15.1203 3.79715 15.4957 3.94375 15.8713 4.08984C15.9614 4.12492 16.0538 4.15357 16.1492 4.17032C16.4227 4.21836 16.5914 4.38606 16.6863 4.6381C17.0182 5.51979 17.3503 6.40139 17.6811 7.2835C18.0411 8.24351 18.4 9.20392 18.7585 10.1645C18.7981 10.2705 18.8333 10.3782 18.8683 10.4858C18.8787 10.5178 18.9097 10.5584 18.8644 10.5833C18.8267 10.6041 18.7923 10.5734 18.768 10.548C18.683 10.4591 18.6 10.3681 18.5188 10.2756C18.1845 9.89467 17.8198 9.54458 17.446 9.20306C16.5459 8.38072 15.5733 7.64431 14.6543 6.84442C14.1447 6.40083 13.6314 5.9614 13.1179 5.52234C12.8645 5.30565 12.5782 5.2439 12.2611 5.36234C12.1458 5.40542 12.0312 5.45122 11.9188 5.50147C11.6873 5.60501 11.4524 5.69342 11.2022 5.74616C10.8492 5.8206 10.571 6.01637 10.3565 6.30748C10.1632 6.56975 9.93079 6.78541 9.60499 6.87311C9.27095 6.96301 8.95091 6.91221 8.64402 6.76466C8.53041 6.71005 8.48637 6.60796 8.48528 6.45693C8.52821 6.25212 8.58705 6.02319 8.68982 5.80919C8.91914 5.33161 9.22531 4.90661 9.57804 4.512C10.0417 3.9933 10.5875 3.57804 11.1722 3.20739C11.7651 2.83149 12.3933 2.80088 13.0428 3.01134Z" fill="#31D69C"/>
</svg>
