<svg width="24" height="24" viewBox="0 0 24 24" fill="none" xmlns="http://www.w3.org/2000/svg">
<path d="M12 0.799805C12.2289 0.799805 12.4478 0.929172 12.5473 1.13815L15.9308 7.98468L23.4839 9.07932C23.7127 9.10918 23.9018 9.27835 23.9715 9.49728C24.0411 9.71621 23.9814 9.96499 23.8122 10.1242L18.339 15.4581L19.6327 22.9814C19.6725 23.2102 19.573 23.4391 19.3938 23.5784C19.2844 23.658 19.165 23.6978 19.0356 23.6978L19.0555 23.6879C18.956 23.6879 18.8565 23.668 18.7669 23.6182L12.01 20.0656L5.25299 23.6182C5.04401 23.7277 4.79523 23.7078 4.60615 23.5685C4.41708 23.4292 4.32751 23.2003 4.36732 22.9714L5.66099 15.4482L0.187754 10.1242C0.0185813 9.96499 -0.0411267 9.71621 0.0285327 9.49728C0.0981921 9.27835 0.287268 9.11913 0.516149 9.07932L8.06922 7.98468L11.4527 1.13815C11.5522 0.929172 11.7711 0.799805 12 0.799805ZM12.0199 2.76022L9.04445 8.79073C8.95489 8.96986 8.78572 9.09923 8.58669 9.12908L1.92924 10.0944L6.74569 14.7914C6.88501 14.9307 6.95467 15.1297 6.92481 15.3288L5.79036 21.9564L11.7413 18.8316C11.8084 18.7943 11.8812 18.7738 11.9554 18.7659L12.02 18.7622L12.0844 18.7659C12.1586 18.7738 12.2314 18.7943 12.2985 18.8316L18.2494 21.9564L17.115 15.3288C17.0851 15.1297 17.1448 14.9307 17.2941 14.7914L22.1106 10.0944L15.4531 9.12908C15.2541 9.09923 15.0849 8.97981 14.9954 8.79073L12.0199 2.76022ZM12.0199 14.0152C13.5325 14.0152 14.9755 14.662 15.9905 15.7865C16.0104 15.8064 16.0303 15.8363 16.0303 15.8761L16.7269 19.9362C16.7368 20.0059 16.707 20.0656 16.6572 20.1054C16.6274 20.1253 16.5876 20.1353 16.5577 20.1353H16.5378C16.5378 20.1353 16.4781 20.1353 16.4582 20.1154L12.1891 17.8664C12.1015 17.8186 11.9948 17.809 11.8996 17.8377L11.8308 17.8664L7.5617 20.1154C7.50199 20.1452 7.43233 20.1452 7.38258 20.1054C7.33282 20.0656 7.30297 19.9959 7.31292 19.9362L8.00951 15.8761C8.00951 15.8761 8.02941 15.8164 8.04932 15.7865C9.06435 14.662 10.5073 14.0152 12.0199 14.0152ZM11.8308 8.60166C13.1444 8.60166 14.2092 9.66649 14.2092 10.98C14.2092 12.2936 13.1444 13.3584 11.8308 13.3584C10.5173 13.3584 9.45246 12.2936 9.45246 10.98C9.45246 9.66649 10.5173 8.60166 11.8308 8.60166Z" fill="#31D69C"/>
</svg>
