<svg width="19" height="19" viewBox="0 0 19 19" fill="none" xmlns="http://www.w3.org/2000/svg">
<path d="M14.2002 0.200195C16.6282 0.200195 18.6002 2.1762 18.6002 4.6002V14.2002C18.6002 16.6282 16.6282 18.6002 14.2002 18.6002H4.6002C2.1722 18.6002 0.200195 16.6282 0.200195 14.2002V4.6002C0.200195 2.1722 2.1722 0.200195 4.6002 0.200195H14.2002ZM14.2002 2.2002H4.6002C3.2762 2.2002 2.2002 3.2762 2.2002 4.6002V14.2002C2.2002 15.5242 3.2762 16.6002 4.6002 16.6002H14.2002C15.5242 16.6002 16.6002 15.5242 16.6002 14.2002V4.6002C16.6002 3.2762 15.5242 2.2002 14.2002 2.2002ZM13.6242 12.9482C13.8442 12.9482 14.0242 13.1282 14.0242 13.3482V14.4442C14.0242 14.6642 13.8442 14.8442 13.6242 14.8442H5.3282C5.1082 14.8442 4.9282 14.6642 4.9282 14.4442V13.3482C4.9282 13.1282 5.1082 12.9482 5.3282 12.9482H13.6242ZM10.7322 4.0482C10.7842 4.0482 10.8242 4.0922 10.8242 4.1522V8.2122H12.4962C12.5322 8.2122 12.5682 8.2402 12.5802 8.2802C12.5882 8.2962 12.5882 8.3082 12.5882 8.3202C12.5882 8.3482 12.5802 8.3762 12.5602 8.3962L9.5402 11.5642C9.5042 11.6002 9.4522 11.6002 9.4162 11.5642L6.3962 8.3962C6.3802 8.3762 6.3682 8.3482 6.3682 8.3202C6.3682 8.3042 6.3722 8.2922 6.3762 8.2802C6.3882 8.2402 6.4242 8.2122 6.4602 8.2122H8.0162V4.1522C8.0162 4.0962 8.0562 4.0482 8.1082 4.0482H10.7322Z" fill="#31D69C"/>
</svg>
