<svg width="22" height="19" viewBox="0 0 22 19" fill="none" xmlns="http://www.w3.org/2000/svg">
<path fill-rule="evenodd" clip-rule="evenodd" d="M11.8398 15.9019C11.867 15.7641 12.0357 15.7128 12.1341 15.8126L14.0832 17.7888C14.1815 17.8886 14.1309 18.0596 13.9951 18.0881L11.5437 18.5965C11.4209 18.6221 11.3132 18.5119 11.3375 18.3874L11.8398 15.9019ZM17.3759 10.5632L19.2613 12.4748C19.3344 12.5489 19.3344 12.6686 19.2613 12.7428L15.022 17.0411C14.9489 17.1152 14.8299 17.1152 14.7568 17.0411L12.8724 15.1295C12.7983 15.0553 12.7983 14.9356 12.8724 14.8615L17.1107 10.5632C17.1838 10.4891 17.3028 10.4891 17.3759 10.5632ZM16.4837 0.200195C17.2568 0.200195 17.8893 0.841528 17.8893 1.62538V8.47006L16.4481 9.93134L16.4397 9.93989L16.0002 10.3855V5.42777C16.0002 5.04867 15.6975 4.74178 15.3236 4.74178H2.96559C2.5917 4.74178 2.28903 5.04867 2.28903 5.42777V14.0872C2.28903 14.4663 2.5917 14.7732 2.96559 14.7732H11.6728L11.6335 14.8131C11.2418 14.9309 10.9288 15.2501 10.8473 15.6691L10.6608 16.5898H1.8055C1.03242 16.5898 0.399902 15.9485 0.399902 15.1646V1.62538C0.399902 0.841528 1.03242 0.200195 1.8055 0.200195H16.4837ZM6.44596 6.57817C6.72801 6.57817 6.99227 6.62283 7.23872 6.71119C7.4861 6.8005 7.70256 6.92212 7.88904 7.07604C8.07552 7.22996 8.2217 7.40858 8.32853 7.61286C8.43441 7.81713 8.48783 8.03566 8.48783 8.26844C8.48783 8.38245 8.47471 8.49647 8.44753 8.61238C8.42036 8.72735 8.38288 8.83946 8.33509 8.94968C8.28636 9.05894 8.22732 9.1625 8.15798 9.25942C8.0877 9.35633 8.00899 9.44374 7.9209 9.52165C8.06052 9.59956 8.18703 9.69267 8.30041 9.80099C8.4138 9.9093 8.51125 10.0281 8.58997 10.1592C8.66962 10.2893 8.73147 10.4281 8.77363 10.5753C8.81674 10.7226 8.83735 10.8737 8.83735 11.0295C8.83735 11.2984 8.77551 11.5464 8.64994 11.7744C8.52531 12.0015 8.35383 12.1981 8.13643 12.3635C7.91903 12.5288 7.66508 12.658 7.37553 12.7511C7.08597 12.8433 6.7758 12.8898 6.44596 12.8898C6.11611 12.8898 5.80688 12.8433 5.51732 12.7511C5.22683 12.658 4.97382 12.5288 4.75642 12.3635C4.53902 12.1981 4.36754 12.0015 4.24197 11.7744C4.11734 11.5464 4.05456 11.2984 4.05456 11.0295C4.05456 10.8737 4.07611 10.7217 4.11922 10.5734C4.16139 10.4243 4.22323 10.2855 4.30382 10.1544C4.38535 10.0243 4.4828 9.90455 4.59619 9.79434C4.70957 9.68507 4.83795 9.59101 4.97945 9.5131C4.89136 9.43899 4.81265 9.35253 4.7433 9.25562C4.67396 9.15775 4.61399 9.05514 4.56432 8.94683C4.51466 8.83851 4.47718 8.72735 4.45094 8.61238C4.42564 8.49647 4.41252 8.38245 4.41252 8.26844C4.41252 8.03566 4.46593 7.81713 4.57276 7.61286C4.67958 7.40858 4.82483 7.22996 5.00943 7.07604C5.19403 6.92212 5.4105 6.8005 5.65788 6.71119C5.90527 6.62283 6.16765 6.57817 6.44596 6.57817ZM11.8425 6.57817C12.1246 6.57817 12.3888 6.62283 12.6353 6.71119C12.8827 6.8005 13.0991 6.92212 13.2856 7.07604C13.4721 7.22996 13.6183 7.40858 13.7251 7.61286C13.831 7.81713 13.8844 8.03566 13.8844 8.26844C13.8844 8.38245 13.8713 8.49647 13.8441 8.61238C13.8169 8.72735 13.7794 8.83946 13.7317 8.94968C13.6829 9.05894 13.6239 9.1625 13.5546 9.25942C13.4843 9.35633 13.4056 9.44374 13.3175 9.52165C13.4571 9.59956 13.5836 9.69267 13.697 9.80099C13.8104 9.9093 13.9078 10.0281 13.9865 10.1592C14.0662 10.2893 14.128 10.4281 14.1702 10.5753C14.2133 10.7226 14.2339 10.8737 14.2339 11.0295C14.2339 11.2984 14.1721 11.5464 14.0465 11.7744C13.9219 12.0015 13.7504 12.1981 13.533 12.3635C13.3156 12.5288 13.0617 12.658 12.7721 12.7511C12.4825 12.8433 12.1724 12.8898 11.8425 12.8898C11.5127 12.8898 11.2034 12.8433 10.9139 12.7511C10.6234 12.658 10.3704 12.5288 10.153 12.3635C9.9356 12.1981 9.76411 12.0015 9.63855 11.7744C9.51392 11.5464 9.45113 11.2984 9.45113 11.0295C9.45113 10.8737 9.47269 10.7217 9.51579 10.5734C9.55796 10.4243 9.61981 10.2855 9.70039 10.1544C9.78192 10.0243 9.87937 9.90455 9.99276 9.79434C10.1061 9.68507 10.2345 9.59101 10.376 9.5131C10.2879 9.43899 10.2092 9.35253 10.1399 9.25562C10.0705 9.15775 10.0106 9.05514 9.9609 8.94683C9.91123 8.83851 9.87375 8.72735 9.84751 8.61238C9.82221 8.49647 9.80909 8.38245 9.80909 8.26844C9.80909 8.03566 9.86251 7.81713 9.96933 7.61286C10.0762 7.40858 10.2214 7.22996 10.406 7.07604C10.5906 6.92212 10.8071 6.8005 11.0545 6.71119C11.3018 6.62283 11.5642 6.57817 11.8425 6.57817ZM19.2595 8.65229L20.6231 10.0346L21.1451 10.5638C21.1926 10.612 21.2092 10.6799 21.195 10.7418C21.1873 10.7748 21.1707 10.8067 21.1449 10.8328L20.0467 11.9464C20.0223 11.9711 19.9928 11.9875 19.9617 11.9958L19.9142 12.0018C19.8982 12.0018 19.8822 11.9998 19.8666 11.9957L19.8214 11.9772L19.7815 11.9464L18.6831 10.8322L17.8963 10.0346C17.8232 9.96051 17.8232 9.8408 17.8963 9.76669L18.9945 8.65314L19.0348 8.62187C19.105 8.58008 19.1981 8.59004 19.2595 8.65229ZM6.44596 10.0423C6.28384 10.0423 6.13204 10.067 5.99054 10.1174C5.84811 10.1668 5.72348 10.2352 5.61759 10.3217C5.51076 10.4072 5.42643 10.5079 5.36552 10.6228C5.30461 10.7388 5.27369 10.8623 5.27369 10.9953C5.27369 11.1293 5.30461 11.2509 5.36552 11.362C5.42643 11.4732 5.51076 11.5692 5.61759 11.649C5.72348 11.7297 5.84811 11.7934 5.99054 11.839C6.13204 11.8846 6.28384 11.9074 6.44596 11.9074C6.60807 11.9074 6.76081 11.8846 6.90418 11.839C7.04755 11.7934 7.17312 11.7297 7.27995 11.649C7.38584 11.5692 7.47017 11.4732 7.53108 11.362C7.59199 11.2509 7.62291 11.1293 7.62291 10.9953C7.62291 10.8623 7.59199 10.7388 7.53108 10.6228C7.47017 10.5079 7.38584 10.4072 7.27995 10.3217C7.17312 10.2352 7.04755 10.1668 6.90418 10.1174C6.76081 10.067 6.60807 10.0423 6.44596 10.0423ZM11.8425 10.0423C11.6804 10.0423 11.5286 10.067 11.3871 10.1174C11.2447 10.1668 11.1201 10.2352 11.0142 10.3217C10.9073 10.4072 10.823 10.5079 10.7621 10.6228C10.7012 10.7388 10.6703 10.8623 10.6703 10.9953C10.6703 11.1293 10.7012 11.2509 10.7621 11.362C10.823 11.4732 10.9073 11.5692 11.0142 11.649C11.1201 11.7297 11.2447 11.7934 11.3871 11.839C11.5286 11.8846 11.6804 11.9074 11.8425 11.9074C12.0046 11.9074 12.1574 11.8846 12.3008 11.839C12.4441 11.7934 12.5697 11.7297 12.6765 11.649C12.7824 11.5692 12.8667 11.4732 12.9277 11.362C12.9886 11.2509 13.0195 11.1293 13.0195 10.9953C13.0195 10.8623 12.9886 10.7388 12.9277 10.6228C12.8667 10.5079 12.7824 10.4072 12.6765 10.3217C12.5697 10.2352 12.4441 10.1668 12.3008 10.1174C12.1574 10.067 12.0046 10.0423 11.8425 10.0423ZM6.45439 7.69837C6.33819 7.69837 6.22856 7.71642 6.12642 7.75252C6.02428 7.78863 5.93525 7.83803 5.86029 7.90264C5.78439 7.9663 5.72535 8.04041 5.68131 8.12497C5.63727 8.20953 5.61478 8.30074 5.61478 8.39766C5.61478 8.49457 5.63727 8.58483 5.68131 8.66844C5.72535 8.7511 5.78439 8.82331 5.86029 8.88507C5.93525 8.94588 6.02428 8.99433 6.12642 9.03044C6.22856 9.06654 6.33819 9.08459 6.45439 9.08459C6.56871 9.08459 6.67648 9.06654 6.77862 9.03044C6.88076 8.99433 6.96978 8.94588 7.04474 8.88507C7.12065 8.82331 7.17968 8.7511 7.22466 8.66844C7.2687 8.58483 7.29026 8.49457 7.29026 8.39766C7.29026 8.30074 7.2687 8.20953 7.22466 8.12497C7.17968 8.04041 7.12065 7.9663 7.04474 7.90264C6.96978 7.83803 6.88076 7.78863 6.77862 7.75252C6.67648 7.71642 6.56871 7.69837 6.45439 7.69837ZM11.851 7.69837C11.7348 7.69837 11.6251 7.71642 11.523 7.75252C11.4208 7.78863 11.3318 7.83803 11.2569 7.90264C11.181 7.9663 11.1219 8.04041 11.0779 8.12497C11.0338 8.20953 11.0114 8.30074 11.0114 8.39766C11.0114 8.49457 11.0338 8.58483 11.0779 8.66844C11.1219 8.7511 11.181 8.82331 11.2569 8.88507C11.3318 8.94588 11.4208 8.99433 11.523 9.03044C11.6251 9.06654 11.7348 9.08459 11.851 9.08459C11.9653 9.08459 12.073 9.06654 12.1752 9.03044C12.2773 8.99433 12.3664 8.94588 12.4413 8.88507C12.5172 8.82331 12.5763 8.7511 12.6212 8.66844C12.6643 8.58483 12.6868 8.49457 12.6868 8.39766C12.6868 8.30074 12.6643 8.20953 12.6212 8.12497C12.5763 8.04041 12.5172 7.9663 12.4413 7.90264C12.3664 7.83803 12.2773 7.78863 12.1752 7.75252C12.073 7.71642 11.9653 7.69837 11.851 7.69837ZM3.28232 1.62177C2.73414 1.62177 2.28903 2.07308 2.28903 2.6289C2.28903 3.18472 2.73414 3.63603 3.28232 3.63603C3.83051 3.63603 4.27561 3.18472 4.27561 2.6289C4.27561 2.07308 3.83051 1.62177 3.28232 1.62177ZM8.62623 1.7925H5.97246C5.51798 1.7925 5.1469 2.16875 5.1469 2.62861L5.15176 2.71956C5.19675 3.13791 5.54828 3.46567 5.97246 3.46567H8.62623C9.07977 3.46567 9.45179 3.08942 9.45179 2.62861L9.44691 2.53784C9.40182 2.12026 9.04954 1.7925 8.62623 1.7925Z" fill="#31D69C"/>
</svg>
