<svg width="22" height="22" viewBox="0 0 22 22" fill="none" xmlns="http://www.w3.org/2000/svg">
<path d="M11.0001 0.600098C16.7469 0.600098 21.4001 5.26065 21.4001 11.0001C21.4001 16.7395 16.7395 21.4001 11.0001 21.4001C5.26065 21.4001 0.600098 16.7395 0.600098 11.0001C0.600098 5.26065 5.26065 0.600098 11.0001 0.600098ZM11.0001 2.63313C6.38358 2.63313 2.63313 6.38358 2.63313 11.0074C2.63313 15.6313 6.37624 19.3744 11.0001 19.3744C15.624 19.3671 19.3671 15.624 19.3671 11.0001C19.3671 6.37624 15.6166 2.63313 11.0001 2.63313ZM11.1542 8.93771C12.0423 9.06982 12.512 9.63496 12.512 10.5377V10.846C12.5487 11.4258 12.3579 12.0129 12.1451 12.6074C11.9762 13.0772 11.8588 13.5689 11.668 14.0313C11.5065 14.4276 11.4478 14.8166 11.4625 15.235C11.4772 15.5946 11.7047 15.8515 12.057 15.8735C12.3946 15.8882 12.7322 15.9175 13.0405 15.712L13.0331 15.7047C13.1946 15.5946 13.2973 15.668 13.2973 15.8662C13.3047 16.1671 13.1579 16.4166 12.901 16.5267C12.0643 16.879 11.2056 17.0478 10.2955 16.9524C9.48083 16.8717 8.91569 16.2845 8.86432 15.4551C8.81294 14.6111 9.00377 13.8184 9.29001 13.0405C9.48817 12.5047 9.65698 11.9689 9.84046 11.4258C9.91386 11.2203 9.9212 11.0001 9.9212 10.7873C9.91386 10.2074 9.47349 9.85514 8.90101 9.98725C8.67349 10.0386 8.44597 10.09 8.24046 10.1928C8.11569 10.2588 8.06432 10.2074 8.06432 10.068C8.05698 9.61294 8.15973 9.46615 8.58542 9.29001C9.41478 8.95239 10.2662 8.8056 11.1542 8.93771ZM11.9689 4.46799C12.7836 4.49001 13.5102 5.20927 13.5102 6.03129C13.5102 6.87533 12.7689 7.62395 11.9322 7.61661C11.1249 7.60927 10.3616 6.91936 10.3395 6.05331C10.3249 5.31202 10.9707 4.44597 11.9689 4.47533V4.46799Z" fill="#31D69C"/>
</svg>
