<svg width="19" height="21" viewBox="0 0 19 21" fill="none" xmlns="http://www.w3.org/2000/svg">
<path d="M18.0797 7.08358H10.4821V10.706H17.8997H18.0797C18.4798 10.706 18.7999 10.3881 18.7999 9.99959V7.79001C18.8039 7.40147 18.4798 7.08358 18.0797 7.08358ZM0.399902 7.79394V10.0035C0.399902 10.3921 0.723972 10.7099 1.12006 10.7099H1.3001H8.71769V7.08746H1.12006C0.719971 7.08358 0.399902 7.40147 0.399902 7.79394ZM10.4821 20.3999H16.5674C17.3035 20.3999 17.8997 19.8151 17.8997 19.093V12.637H10.4821V20.3999ZM1.3001 19.093C1.3001 19.8151 1.89622 20.3999 2.63238 20.3999H8.71769V12.637H1.3001V19.093ZM4.28474 5.7492C4.66882 5.92973 5.24895 6.01607 6.09313 6.02785V6.03177H12.7586C12.8226 6.03177 12.8866 6.03177 12.9506 6.03177C13.8908 6.03177 14.5229 5.9415 14.935 5.7492C16.3633 5.08593 16.9715 3.40226 16.2953 2.00508C15.8232 1.02785 14.807 0.399902 13.7028 0.399902C13.2747 0.399902 12.8626 0.490169 12.4745 0.670703C11.6183 1.07102 10.4581 2.6134 9.60588 3.88499C8.88973 2.81356 7.63346 1.09064 6.73727 0.670703C6.34918 0.490169 5.93709 0.399902 5.509 0.399902C4.40877 0.399902 3.39255 1.03177 2.91644 2.00508C2.2483 3.40226 2.85643 5.08201 4.28474 5.7492ZM13.0586 1.85987C13.2667 1.76568 13.4827 1.71466 13.7108 1.71466C14.2949 1.71466 14.835 2.04825 15.0871 2.56631C15.4471 3.30807 15.1231 4.20289 14.3669 4.55218C14.2909 4.5875 13.9588 4.70524 12.9586 4.70524C12.2144 4.70524 11.3743 4.63852 10.7581 4.57965C11.5223 3.44543 12.5545 2.09535 13.0586 1.85987ZM4.14071 2.57023C4.39276 2.05218 4.93288 1.71858 5.517 1.71858C5.74105 1.71858 5.9611 1.76568 6.16914 1.8638C6.67325 2.09927 7.70548 3.44935 8.47364 4.5875C7.85751 4.64637 7.02133 4.71309 6.27317 4.71309C5.27295 4.71309 4.94088 4.59535 4.86486 4.56003C4.1047 4.20289 3.78063 3.31199 4.14071 2.57023Z" fill="#31D69C"/>
</svg>
