<svg width="27" height="27" viewBox="0 0 27 27" fill="none" xmlns="http://www.w3.org/2000/svg">
<path fill-rule="evenodd" clip-rule="evenodd" d="M14.4967 1.08739L16.6937 6.7932L19.739 6.06148C20.4271 5.896 21.0503 6.47857 20.958 7.15857L20.9387 7.26122L20.2055 10.3059L25.9129 12.5036C26.7258 12.8166 26.7611 13.9304 26.0189 14.3127L25.9128 14.3602L20.2064 16.5573L20.9387 19.6025C21.1042 20.2907 20.5217 20.9139 19.8417 20.8216L19.739 20.8023L16.6937 20.07L14.4967 25.7763C14.1839 26.5893 13.0699 26.6247 12.6875 25.8824L12.64 25.7764L10.4423 20.0691L7.39767 20.8023C6.70953 20.9678 6.08632 20.3852 6.17862 19.7052L6.19791 19.6026L6.92962 16.5573L1.22392 14.3603C0.4109 14.0475 0.375552 12.9337 1.11778 12.5511L1.22382 12.5036L6.93052 10.3059L6.19791 7.26124C6.03243 6.5731 6.615 5.94989 7.295 6.04219L7.39765 6.06148L10.4423 6.7941L12.64 1.0875C12.967 0.237499 14.1697 0.237499 14.4967 1.08739ZM10.9616 7.84349L10.6162 7.76098L7.18724 6.93654C7.11839 6.91998 7.05641 6.98196 7.07297 7.05082L7.89742 10.4797L7.97993 10.8261L13.567 13.4315L7.97993 16.0371L7.89742 16.3841L7.07297 19.813C7.05641 19.8818 7.11839 19.9438 7.18728 19.9272L10.6162 19.103L10.9616 19.0197L13.5679 13.4325L16.1726 19.0197L16.5205 19.103L19.9494 19.9272C20.0183 19.9438 20.0802 19.8818 20.0637 19.813L19.2392 16.3841L19.1552 16.0371L13.5679 13.4325L19.1552 10.8252L19.2392 10.4797L20.0637 7.05081C20.0802 6.98196 20.0183 6.91998 19.9494 6.93654L16.5205 7.76098L16.1735 7.84349L13.5682 13.4313L10.9616 7.84349Z" fill="#FFB80A"/>
</svg>
