<svg width="76" height="28" viewBox="0 0 76 28" fill="none" xmlns="http://www.w3.org/2000/svg">
<g opacity="0.3">
<path fill-rule="evenodd" clip-rule="evenodd" d="M25.7473 22.2726H24.5213H22.0691H17.9822H15.5301H11.4432H8.99115H4.90425H2.45208H1.22604C0.548932 22.2726 0 22.822 0 23.4998V26.7726C0 27.4503 0.548932 27.9998 1.22604 27.9998H25.7473C26.4244 27.9998 26.9734 27.4503 26.9734 26.7726V23.4998C26.9734 22.822 26.4244 22.2726 25.7473 22.2726ZM14.1622 7.8299C14.1622 6.45462 14.5393 5.16653 15.1948 4.05659L14.1668 3.38374C13.755 3.11427 13.2184 3.11427 12.8066 3.38374L0.54599 11.4075C0.0964369 11.7017 -0.103832 12.2501 0.052698 12.7577C0.209228 13.2653 0.685972 13.6124 1.22613 13.6124H2.45216V21.6362H4.90431V13.6124H8.99117V21.6362H11.4432V13.6124H15.5301V21.6362H17.9822V14.3452C15.6983 13.0393 14.1622 10.6115 14.1622 7.8299ZM21.8356 15.1217V21.6362H24.4045V14.6362C23.6012 14.9275 22.7368 15.096 21.8356 15.1217Z" fill="white"/>
<path fill-rule="evenodd" clip-rule="evenodd" d="M27.5409 7.14106C27.5313 7.26178 27.4276 7.35374 27.3053 7.35374C27.2991 7.35374 27.293 7.35348 27.2868 7.35303C27.1564 7.34336 27.0592 7.23249 27.0691 7.10555C27.0802 6.96592 27.086 6.82336 27.086 6.68204C27.086 6.55493 27.1919 6.44432 27.3225 6.44432C27.4532 6.44432 27.5592 6.53992 27.5592 6.66713V6.68186C27.5589 6.83507 27.553 6.98944 27.5409 7.14106ZM27.2506 8.53639C27.1986 8.68685 27.1394 8.8366 27.0749 8.98111C27.036 9.06775 26.949 9.11959 26.8578 9.11959C26.8264 9.11959 26.7942 9.11337 26.7635 9.10041C26.6437 9.04955 26.5888 8.91383 26.6409 8.79718C26.7 8.66474 26.7543 8.52769 26.802 8.38965C26.8437 8.26937 26.9778 8.20413 27.1018 8.2447C27.2258 8.285 27.2925 8.41566 27.2506 8.53639ZM26.3925 3.87939C26.3165 3.87939 26.242 3.84389 26.1963 3.77829C26.1125 3.65801 26.0226 3.54075 25.9289 3.42988C25.8459 3.3317 25.8603 3.1863 25.9611 3.10543C26.0619 3.02439 26.2113 3.03868 26.2943 3.13677C26.3974 3.25873 26.4963 3.38745 26.5884 3.51997C26.6617 3.62525 26.6333 3.76861 26.5249 3.83998C26.4843 3.8667 26.4381 3.87939 26.3925 3.87939ZM26.3146 10.2027C26.2102 10.3276 26.0998 10.4476 25.9859 10.5594C25.9398 10.6048 25.8788 10.6276 25.818 10.6276C25.7578 10.6276 25.6975 10.6052 25.6514 10.5607C25.5587 10.4712 25.5579 10.3253 25.65 10.2349C25.7529 10.134 25.8527 10.0253 25.9474 9.91192C26.0299 9.8133 26.1791 9.79812 26.2803 9.87855C26.3815 9.9587 26.3969 10.1038 26.3146 10.2027ZM25.2679 2.49605C25.2224 2.56377 25.1467 2.60061 25.0693 2.60061C25.0251 2.60061 24.9804 2.58863 24.9404 2.56333C24.8167 2.48477 24.6877 2.41243 24.5569 2.34816C24.4402 2.29073 24.3933 2.15225 24.4523 2.03872C24.5112 1.92554 24.6534 1.87947 24.7701 1.93681C24.9163 2.00871 25.0603 2.08958 25.1988 2.17719C25.3084 2.2467 25.3391 2.38961 25.2679 2.49605ZM24.7987 11.4128C24.6512 11.4866 24.4989 11.5522 24.3458 11.6084C24.3183 11.6186 24.2902 11.6234 24.2622 11.6234C24.1667 11.6234 24.0766 11.5665 24.0408 11.4741C23.9947 11.355 24.0564 11.222 24.1787 11.1773C24.315 11.1273 24.4508 11.0686 24.5824 11.0029C24.6986 10.9444 24.8413 10.9893 24.9009 11.1026C24.961 11.2158 24.9148 11.3547 24.7987 11.4128ZM20.4417 12.801C19.8992 12.6897 19.3865 12.4856 18.9109 12.2116H19.4833C19.5136 12.2344 19.5447 12.2559 19.5753 12.278C19.6243 12.3134 19.6733 12.3492 19.7232 12.383C19.8162 12.4462 19.911 12.5068 20.0074 12.5644C20.0495 12.5895 20.0925 12.613 20.1353 12.6372C20.2118 12.6803 20.2891 12.7218 20.3674 12.7614C20.3928 12.774 20.4166 12.7888 20.4417 12.801ZM17.5009 11.0596H18.313C18.3397 11.0937 18.3663 11.1278 18.3937 11.1612C18.4652 11.2488 18.5387 11.334 18.6142 11.4171C18.6565 11.4639 18.7005 11.5091 18.7443 11.5545C18.79 11.602 18.8364 11.6485 18.8835 11.6944C18.9024 11.7128 18.9204 11.7326 18.9395 11.7508H18.2278C17.9677 11.5436 17.7248 11.3123 17.5009 11.0596ZM18.5439 1.38246H19.1974C19.1387 1.43244 19.0801 1.48268 19.023 1.53505C18.9755 1.57881 18.9293 1.62417 18.8829 1.66953C18.8361 1.71543 18.7898 1.76194 18.7443 1.80916C18.7005 1.85461 18.6568 1.89971 18.6142 1.94649C18.5763 1.98803 18.5401 2.03108 18.5035 2.07369H17.7222C17.9763 1.81635 18.2505 1.58432 18.5439 1.38246ZM20.3677 0.602285C20.2894 0.641964 20.212 0.683419 20.1356 0.726471C20.0928 0.750704 20.0497 0.773961 20.0075 0.799349C19.942 0.838495 19.8779 0.879949 19.814 0.92167H19.3586C19.7044 0.764108 20.0655 0.639834 20.442 0.562695C20.4166 0.574856 20.3928 0.589681 20.3677 0.602285ZM23.3243 1.9788C23.3151 1.9788 23.3059 1.97835 23.2966 1.9772C23.1542 1.96105 23.0094 1.95297 22.8663 1.95297C22.7357 1.95297 22.6247 1.84973 22.6247 1.72253C22.6247 1.59541 22.7255 1.49218 22.8563 1.49218H22.8663C23.0276 1.49218 23.1907 1.50141 23.351 1.51961C23.4808 1.53407 23.574 1.64858 23.5588 1.7749C23.5448 1.89216 23.4427 1.9788 23.3243 1.9788ZM22.1636 11.5868C22.1791 11.4603 22.2977 11.3718 22.4266 11.3852C22.5715 11.402 22.7193 11.4105 22.8663 11.4105C22.9969 11.4105 23.113 11.5137 23.113 11.6409C23.113 11.7681 23.0172 11.8713 22.8866 11.8713H22.8663C22.7006 11.8713 22.5337 11.8616 22.3704 11.8428C22.2407 11.8278 22.148 11.713 22.1636 11.5868ZM17.0682 8.52511C17.0755 8.55325 17.0824 8.58184 17.09 8.60971C17.0928 8.61983 17.0952 8.63039 17.098 8.64051C17.137 8.78085 17.1808 8.91888 17.2276 9.05532C17.2376 9.08408 17.2481 9.11222 17.2582 9.1408C17.2669 9.1661 17.2757 9.19149 17.2849 9.21634H16.3732C16.2836 8.99265 16.2065 8.76177 16.1407 8.52511H17.0682ZM17.0117 5.06896C17.0055 5.09621 17.0003 5.12382 16.9946 5.15098C16.9883 5.18143 16.9816 5.21161 16.9754 5.24206C16.9466 5.38648 16.921 5.53233 16.9009 5.6803C16.8999 5.68723 16.8995 5.69433 16.8986 5.70143C16.8957 5.72105 16.894 5.74066 16.8915 5.76019H15.9524C15.9835 5.52567 16.0231 5.29434 16.0773 5.06896H17.0117ZM16.8649 7.37309C16.874 7.47012 16.8855 7.56643 16.8983 7.66221C16.8993 7.66913 16.8998 7.67632 16.9007 7.68342C16.9182 7.81151 16.9395 7.93854 16.9634 8.06432H16.0302C15.9841 7.83806 15.9476 7.60788 15.9242 7.37309H16.8649ZM15.8864 6.68186C15.8864 6.52652 15.8948 6.37357 15.9048 6.22107H16.8482C16.8479 6.22471 16.8479 6.22844 16.8477 6.23208C16.8389 6.38094 16.8328 6.53051 16.8328 6.68186C16.8328 6.759 16.8356 6.83552 16.8379 6.9123H15.8956C15.8929 6.83534 15.8864 6.75953 15.8864 6.68186ZM19.7913 3.44461C19.7445 3.50036 19.6765 3.52921 19.6079 3.52921C19.5552 3.52921 19.5024 3.51216 19.4584 3.4771C19.3571 3.3965 19.3423 3.25154 19.4248 3.15292C19.5291 3.02829 19.6401 2.90872 19.7539 2.79697C19.8465 2.70687 19.996 2.70642 20.0888 2.79599C20.1815 2.88591 20.1819 3.03149 20.0897 3.12203C19.9865 3.22296 19.8862 3.33152 19.7913 3.44461ZM19.2024 9.5154C19.3106 9.44421 19.4577 9.47182 19.5308 9.57763C19.6144 9.69808 19.704 9.81561 19.7975 9.92666C19.8803 10.0251 19.8656 10.1702 19.7646 10.2511C19.7206 10.2861 19.6673 10.3034 19.6146 10.3034C19.5462 10.3034 19.4783 10.2746 19.4314 10.2191C19.3288 10.0969 19.2301 9.96794 19.1383 9.83541C19.0656 9.72995 19.0941 9.58659 19.2024 9.5154ZM18.9334 4.96555C18.8998 5.06159 18.808 5.12196 18.7093 5.12196C18.6842 5.12196 18.6584 5.11787 18.6334 5.1098C18.5096 5.06878 18.4434 4.93812 18.4852 4.8174C18.5376 4.66765 18.5969 4.51807 18.662 4.37321C18.7145 4.25639 18.8537 4.20357 18.9736 4.25426C19.0933 4.30521 19.148 4.44111 19.0957 4.55775C19.0358 4.6909 18.9814 4.82823 18.9334 4.96555ZM18.1737 6.68666V6.68186C18.1737 6.52474 18.18 6.36665 18.1925 6.21255C18.203 6.08579 18.3163 5.99179 18.4471 6.00102C18.5775 6.01114 18.6746 6.12219 18.6643 6.24895C18.6528 6.39133 18.6468 6.53691 18.6468 6.68186C18.6468 6.80907 18.5408 6.91479 18.4102 6.91479C18.2797 6.91479 18.1737 6.81413 18.1737 6.68666ZM18.5231 7.82004C18.6495 7.7887 18.7784 7.86451 18.8098 7.98807C18.846 8.1293 18.8887 8.27053 18.9367 8.40741C18.9788 8.52787 18.9128 8.65871 18.7891 8.69972C18.7637 8.70833 18.7379 8.71224 18.7127 8.71224C18.6142 8.71224 18.5221 8.65187 18.4888 8.556C18.4365 8.4067 18.3902 8.25304 18.3509 8.0993C18.3191 7.97582 18.3963 7.85093 18.5231 7.82004ZM21.271 11.3211C21.2294 11.4011 21.1462 11.4472 21.0597 11.4472C21.0238 11.4472 20.9871 11.4391 20.9528 11.4223C20.8073 11.3504 20.6632 11.269 20.5248 11.1808C20.4155 11.1112 20.385 10.9683 20.4564 10.8619C20.5283 10.7557 20.6746 10.7257 20.7841 10.7953C20.9079 10.8743 21.0369 10.9471 21.1672 11.0115C21.2836 11.069 21.3302 11.2077 21.271 11.3211ZM21.1585 2.35668C21.1239 2.37372 21.0875 2.3818 21.0513 2.3818C20.9651 2.3818 20.8821 2.33591 20.8402 2.25593C20.7808 2.14257 20.8269 2.00392 20.9436 1.94604C21.091 1.87281 21.2434 1.80739 21.3969 1.75138C21.519 1.7069 21.6558 1.767 21.7015 1.88639C21.7473 2.00552 21.6852 2.13822 21.5628 2.18287C21.426 2.23294 21.29 2.29117 21.1585 2.35668ZM17.3119 2.53448H18.1407C18.1119 2.57487 18.0828 2.6149 18.0546 2.65591C17.9848 2.758 17.9174 2.86194 17.8531 2.96838C17.8332 3.00131 17.8142 3.03539 17.7948 3.06886C17.7425 3.15843 17.6922 3.24968 17.6439 3.34209C17.6261 3.37617 17.6079 3.40981 17.5906 3.44443C17.5887 3.44834 17.5866 3.45225 17.5847 3.45615H16.6977C16.8768 3.12736 17.0831 2.81978 17.3119 2.53448ZM16.4703 3.91694H17.3758C17.3344 4.01769 17.2951 4.11951 17.258 4.22274C17.2478 4.25133 17.2374 4.27964 17.2275 4.30823C17.1934 4.40729 17.1616 4.50724 17.1317 4.60817H16.2074C16.2826 4.37063 16.3707 4.14019 16.4703 3.91694ZM16.5792 9.67713H17.4754C17.5125 9.75871 17.5506 9.83958 17.5906 9.91929C17.6079 9.95364 17.6259 9.98755 17.6439 10.0216C17.6924 10.1142 17.7425 10.2052 17.7948 10.2949C17.8142 10.3282 17.8329 10.3622 17.8531 10.3953C17.8949 10.4642 17.9387 10.5317 17.9827 10.599H17.1342C16.9253 10.3117 16.7402 10.0032 16.5792 9.67713ZM26.94 4.65469C27.0637 4.61279 27.1981 4.6775 27.2405 4.79804C27.293 4.94691 27.3396 5.10056 27.3793 5.25422C27.4113 5.37778 27.3344 5.50286 27.2076 5.53393C27.1882 5.53881 27.1688 5.54085 27.1496 5.54085C27.0439 5.54085 26.9475 5.47126 26.9204 5.36669C26.8836 5.22519 26.8409 5.08396 26.7926 4.94735C26.7504 4.82707 26.8163 4.69596 26.94 4.65469ZM22.8663 0C22.6247 0 22.3872 0.0175759 22.1529 0.0483781C21.9087 0.0165995 21.6766 0 21.4466 0C19.7047 0 18.1339 0.822783 17.0316 2.1345C17.0204 2.14417 17.0123 2.15571 17.0034 2.16725C16.652 2.59094 16.3501 3.0654 16.1059 3.57874C16.0998 3.59001 16.0943 3.60111 16.0898 3.61327C15.9216 3.97207 15.7813 4.34897 15.6734 4.74159C15.6628 4.76369 15.658 4.78793 15.6549 4.81305C15.4985 5.40654 15.4131 6.03324 15.4131 6.68186C15.4131 7.69656 15.6195 8.65853 15.9865 9.52073C15.9897 9.52996 15.9928 9.53866 15.9973 9.54745C16.2174 10.0585 16.4942 10.5336 16.8191 10.9633C16.8274 10.9744 16.8342 10.9861 16.8443 10.9955C17.1732 11.4252 17.5501 11.808 17.9659 12.1342C17.9778 12.1469 17.9919 12.1563 18.0066 12.1663C18.983 12.9202 20.1687 13.3636 21.4466 13.3636C21.6766 13.3636 21.9087 13.3471 22.1529 13.3153C22.3872 13.3461 22.6247 13.3636 22.8663 13.3636C26.1932 13.3636 28.8998 10.3663 28.8998 6.68186C28.8998 2.9974 26.1932 0 22.8663 0Z" fill="white"/>
<path d="M36.1142 6.24805C36.9593 6.24805 37.608 6.4554 38.0604 6.87012C38.5128 7.28483 38.739 7.79829 38.739 8.41048C38.739 8.92394 38.5776 9.36432 38.2547 9.73164C38.0395 9.97652 37.7246 10.1701 37.31 10.3122C37.9398 10.4623 38.4032 10.72 38.7002 11.0854C38.9971 11.4507 39.1456 11.9099 39.1456 12.4628C39.1456 12.9131 39.04 13.3179 38.8287 13.6773C38.6174 14.0368 38.3285 14.3211 37.9617 14.5305C37.7345 14.6608 37.3917 14.7556 36.9334 14.8148C36.3235 14.8938 35.9189 14.9333 35.7196 14.9333H31.044V6.24805H36.1142ZM45.0798 6.24805L48.3742 14.9333H45.5402L45.1097 13.4996H42.0245L41.6 14.9333H38.8317L42.1262 6.24805H45.0798ZM35.1516 11.3076H33.7764V13.0671H35.1576C35.6239 13.0671 35.9528 12.9852 36.1441 12.8213C36.3355 12.6573 36.4311 12.4372 36.4311 12.1607C36.4311 11.9039 36.3365 11.6976 36.1471 11.5416C35.9578 11.3856 35.6259 11.3076 35.1516 11.3076ZM43.5731 8.49935L42.6105 11.6215H44.5417L43.5731 8.49935ZM34.9722 8.00762H33.7764V9.65462H34.9543C35.3768 9.65462 35.6708 9.58254 35.8362 9.43838C36.0016 9.29422 36.0843 9.08587 36.0843 8.81335C36.0843 8.56057 36.0016 8.36309 35.8362 8.2209C35.6708 8.07871 35.3828 8.00762 34.9722 8.00762ZM48.6224 6.24805H51.1515L54.452 11.0528V6.24805H57.005V14.9333H54.452L51.1695 10.1641V14.9333H48.6224V6.24805ZM58.1799 6.24805H60.8884V9.53021L63.7284 6.24805H67.3278L64.135 9.52428L67.4713 14.9333H64.135L62.2875 11.3609L60.8884 12.8124V14.9333H58.1799V6.24805ZM30.958 17.1828H33.9438C34.6172 17.1828 35.1305 17.2339 35.4837 17.3359C35.9583 17.4745 36.3649 17.7206 36.7034 18.0742C37.0419 18.4279 37.2995 18.8608 37.4761 19.373C37.6527 19.8853 37.741 20.5169 37.741 21.268C37.741 21.9279 37.6582 22.4966 37.4926 22.9742C37.2903 23.5576 37.0014 24.0297 36.6261 24.3906C36.3428 24.6641 35.9602 24.8773 35.4782 25.0305C35.1176 25.1435 34.6356 25.2 34.0321 25.2H30.958V17.1828ZM32.5917 18.5391V23.8492H33.8114C34.2676 23.8492 34.5969 23.8237 34.7993 23.7727C35.0642 23.707 35.2841 23.5958 35.4588 23.4391C35.6336 23.2823 35.7762 23.0243 35.8866 22.6652C35.9969 22.3061 36.0521 21.8167 36.0521 21.1969C36.0521 20.5771 35.9969 20.1013 35.8866 19.7695C35.7762 19.4378 35.6216 19.1789 35.423 18.993C35.2243 18.807 34.9722 18.6813 34.6668 18.6156C34.4387 18.5646 33.9917 18.5391 33.3257 18.5391H32.5917ZM38.5385 25.2V17.1828H44.5378V18.5391H40.1722V20.3164H44.2342V21.6672H40.1722V23.8492H44.6923V25.2H38.5385ZM45.4898 25.2V17.1828H48.1114C49.1049 17.1828 49.7524 17.2229 50.0541 17.3031C50.5177 17.4234 50.9059 17.685 51.2187 18.0879C51.5314 18.4908 51.6878 19.0112 51.6878 19.6492C51.6878 20.1414 51.5977 20.5552 51.4174 20.8906C51.2371 21.226 51.008 21.4895 50.7302 21.6809C50.4524 21.8723 50.17 21.999 49.8831 22.0609C49.493 22.1375 48.9282 22.1758 48.1887 22.1758H47.1235V25.2H45.4898ZM47.1235 18.5391V20.8141H48.0176C48.6615 20.8141 49.092 20.7721 49.3091 20.6883C49.5261 20.6044 49.6963 20.4732 49.8196 20.2945C49.9428 20.1159 50.0045 19.9081 50.0045 19.6711C50.0045 19.3794 49.918 19.1388 49.7451 18.9492C49.5721 18.7596 49.3532 18.6411 49.0883 18.5938C48.8933 18.5573 48.5014 18.5391 47.9127 18.5391H47.1235ZM52.11 21.2406C52.11 20.424 52.2333 19.7385 52.4798 19.1844C52.6638 18.776 52.9149 18.4096 53.2332 18.0852C53.5514 17.7607 53.9001 17.5201 54.279 17.3633C54.7831 17.1518 55.3645 17.0461 56.0231 17.0461C57.2152 17.0461 58.1691 17.4125 58.8847 18.1453C59.6004 18.8781 59.9582 19.8971 59.9582 21.2023C59.9582 22.4966 59.6031 23.5092 58.893 24.2402C58.1829 24.9712 57.2336 25.3367 56.0451 25.3367C54.842 25.3367 53.8853 24.973 53.1752 24.2457C52.4651 23.5184 52.11 22.5167 52.11 21.2406ZM53.7934 21.1859C53.7934 22.0938 54.0049 22.7819 54.4281 23.2504C54.8512 23.7189 55.3884 23.9531 56.0396 23.9531C56.6909 23.9531 57.2253 23.7207 57.6429 23.2559C58.0605 22.791 58.2693 22.0938 58.2693 21.1641C58.2693 20.2453 58.0661 19.5599 57.6595 19.1078C57.2529 18.6557 56.713 18.4297 56.0396 18.4297C55.3663 18.4297 54.8236 18.6585 54.4115 19.116C53.9994 19.5736 53.7934 20.2635 53.7934 21.1859ZM60.2314 22.5914L61.8209 22.4383C61.9166 22.9669 62.1107 23.3552 62.4032 23.6031C62.6957 23.851 63.0903 23.975 63.587 23.975C64.1132 23.975 64.5096 23.8647 64.7764 23.6441C65.0431 23.4236 65.1765 23.1656 65.1765 22.8703C65.1765 22.6807 65.1204 22.5194 65.0082 22.3863C64.896 22.2533 64.7 22.1375 64.4204 22.0391C64.2291 21.9734 63.7931 21.8568 63.1124 21.6891C62.2367 21.474 61.6222 21.2096 61.269 20.8961C60.7723 20.4549 60.5239 19.9172 60.5239 19.2828C60.5239 18.8745 60.6407 18.4926 60.8744 18.1371C61.108 17.7816 61.4447 17.5109 61.8844 17.325C62.3241 17.1391 62.8548 17.0461 63.4766 17.0461C64.4922 17.0461 65.2566 17.2667 65.7698 17.7078C66.2831 18.149 66.5526 18.7378 66.5784 19.4742L64.9447 19.5453C64.8748 19.1333 64.7249 18.8371 64.4949 18.6566C64.265 18.4762 63.92 18.3859 63.4601 18.3859C62.9854 18.3859 62.6138 18.4826 62.3452 18.6758C62.1723 18.7997 62.0858 18.9656 62.0858 19.1734C62.0858 19.363 62.1668 19.5253 62.3287 19.6602C62.5347 19.8315 63.0351 20.0102 63.8299 20.1961C64.6246 20.382 65.2124 20.5743 65.5932 20.773C65.974 20.9717 66.2721 21.2434 66.4873 21.5879C66.7026 21.9324 66.8102 22.3581 66.8102 22.8648C66.8102 23.3242 66.6814 23.7544 66.4238 24.1555C66.1663 24.5565 65.802 24.8546 65.3311 25.0496C64.8601 25.2447 64.2732 25.3422 63.5705 25.3422C62.5476 25.3422 61.762 25.1079 61.2138 24.6395C60.6656 24.171 60.3381 23.4883 60.2314 22.5914ZM67.547 25.2V17.1828H69.1807V25.2H67.547ZM71.9706 25.2V18.5391H69.5698V17.1828H75.9995V18.5391H73.6042V25.2H71.9706Z" fill="white"/>
</g>
</svg>
