<svg width="31" height="28" viewBox="0 0 31 28" fill="none" xmlns="http://www.w3.org/2000/svg">
<g opacity="0.50186">
<path fill-rule="evenodd" clip-rule="evenodd" d="M6.56347 3.4643C6.301 0.930782 9.03831 -0.841048 11.2806 0.412422L19.0556 4.76L27.8985 3.53025C28.321 3.46715 28.7526 3.50546 29.1556 3.64067L29.3545 3.71633C29.8133 3.91263 30.207 4.2306 30.4922 4.63649C30.7847 5.03728 30.9583 5.50963 30.9934 6.00243C31.0285 6.49523 30.9231 6.98803 30.6896 7.4246L28.7838 11.0779C29.0576 11.704 29.1566 12.3956 29.0644 13.079C28.9466 13.9521 28.5239 14.7578 27.8698 15.3549L25.342 17.6652L20.7406 26.4823C20.5787 26.7966 20.3551 27.0748 20.0842 27.302L19.916 27.4321C19.5678 27.6795 19.1658 27.842 18.7422 27.9044C18.6016 27.9259 18.4601 27.9371 18.3175 27.9371C17.962 27.9371 17.6086 27.8676 17.28 27.7316C16.9514 27.5956 16.6538 27.3963 16.4037 27.1448L15.7189 26.4637L15.1536 26.9817L15.1433 26.9909C12.8317 29.1052 9.07344 27.7004 8.75311 24.6015L8.29327 20.1694L8.16802 18.9672L0.794149 11.6451C0.482211 11.3356 0.251761 10.9564 0.12149 10.541L0.0718474 10.3609C-0.0438862 9.87428 -0.0190862 9.36512 0.141081 8.89175C0.301248 8.41838 0.592649 7.99817 0.981183 7.67917C1.36972 7.36018 1.83988 7.15468 2.34002 7.08516L6.8726 6.454L6.56347 3.4643ZM24.7333 18.2224L24.3296 18.5929L23.7225 19.1464L20.2308 25.8357C20.0982 26.0921 19.916 26.3195 19.6952 26.5047L19.5581 26.6107C19.2739 26.8131 18.9463 26.945 18.6002 26.9961C18.4865 27.0135 18.3697 27.0217 18.254 27.0227C17.9636 27.0227 17.6764 26.9654 17.4077 26.855C17.1401 26.7436 16.8962 26.581 16.6926 26.3765L16.2712 25.9588L15.9274 26.2733L16.6042 26.9454C16.7827 27.1253 16.9897 27.2758 17.2157 27.3911L17.3885 27.4709C17.683 27.5926 17.9992 27.6549 18.3175 27.6549C18.4456 27.6549 18.5727 27.6447 18.6988 27.6263C19.079 27.5701 19.4386 27.4249 19.7507 27.203C20.0617 26.9812 20.3149 26.6898 20.4895 26.3514L24.7333 18.2224ZM23.1128 19.7036L22.1049 20.6257L19.7546 25.1273C19.6529 25.3244 19.5149 25.4992 19.3479 25.644L19.2173 25.7468C18.991 25.9074 18.7296 26.0127 18.4536 26.0536C18.3617 26.0679 18.2697 26.074 18.1767 26.075C17.9452 26.075 17.7148 26.029 17.5009 25.9411C17.287 25.8521 17.0938 25.7223 16.9305 25.5597L16.8236 25.4539L16.4798 25.7684L16.8931 26.1792C17.0651 26.3502 17.2674 26.4864 17.4896 26.5822L17.6598 26.6464C17.9492 26.7405 18.2561 26.765 18.5578 26.719C18.8585 26.673 19.1437 26.5575 19.3907 26.3816C19.6387 26.2058 19.8402 25.9747 19.9797 25.7069L23.1128 19.7036ZM21.4971 21.1811L20.4882 22.1032L19.2463 24.4838C19.1781 24.6164 19.0867 24.7353 18.9768 24.8351L18.8609 24.9285C18.6976 25.044 18.5096 25.1197 18.3122 25.1493C18.2461 25.1585 18.1799 25.1637 18.1138 25.1637C17.9474 25.1637 17.7831 25.132 17.6292 25.0686C17.5448 25.0336 17.4644 24.9896 17.3898 24.9374L17.0293 25.2653L17.1289 25.3645C17.2612 25.4961 17.4173 25.601 17.5881 25.6748L17.7189 25.7243C17.9411 25.7969 18.1778 25.8164 18.4092 25.7806C18.6407 25.7458 18.8608 25.6569 19.0509 25.5209C19.2411 25.3859 19.3961 25.208 19.5035 25.0015L21.4971 21.1811ZM19.8766 22.6623L18.8677 23.5853L18.734 23.8423C18.6929 23.922 18.6379 23.9932 18.5715 24.0531L18.5015 24.1091C18.4033 24.1787 18.2897 24.2247 18.1698 24.2421C18.1621 24.2433 18.1544 24.2443 18.1467 24.2453L17.6054 24.7402C17.67 24.7791 17.739 24.8109 17.811 24.8344C17.9588 24.8815 18.1159 24.8948 18.2688 24.8712C18.4228 24.8477 18.5674 24.7884 18.6935 24.6995C18.8196 24.6095 18.9229 24.4919 18.9942 24.3549L19.8766 22.6623ZM6.90078 6.73307L2.37929 7.36223C1.93185 7.42357 1.51025 7.60863 1.16305 7.89388C0.814816 8.18015 0.554415 8.5564 0.410782 8.97968C0.267148 9.40397 0.245448 9.85894 0.348781 10.2945C0.452115 10.73 0.675316 11.1288 0.994616 11.4447L8.12199 18.5229L8.04684 17.7931L1.6793 11.4709C1.43042 11.2237 1.2453 10.9218 1.13828 10.5907L1.09134 10.4229C0.997303 10.0262 1.01797 9.61214 1.1492 9.22567C1.2794 8.8392 1.51707 8.49669 1.8343 8.237C2.15051 7.97629 2.53491 7.80861 2.94204 7.75238L6.94869 7.19507L6.90078 6.73307ZM6.97781 7.47227L2.98027 8.02945C2.62481 8.07955 2.29001 8.22575 2.01411 8.45273C1.7382 8.68072 1.53154 8.97927 1.41787 9.31564C1.3042 9.65303 1.28664 10.0139 1.36827 10.3595C1.45094 10.7061 1.62867 11.022 1.88184 11.2735L8.00081 17.3488L7.92472 16.6171L2.64361 11.3728C2.44986 11.1811 2.30491 10.9482 2.21832 10.6925L2.17345 10.5365C2.09905 10.2195 2.11455 9.88931 2.21891 9.58054C2.32328 9.2728 2.51238 8.99879 2.76555 8.79125C3.01871 8.5837 3.32458 8.44976 3.65008 8.40478L7.02572 7.9352L6.97781 7.47227ZM7.05484 8.2124L3.68728 8.68185C3.41448 8.71968 3.15718 8.83316 2.94535 9.008C2.73351 9.18181 2.57438 9.41185 2.48655 9.67052C2.39975 9.92918 2.38631 10.2073 2.44935 10.4731C2.51238 10.7389 2.64878 10.9823 2.84408 11.1755L7.87963 16.1765L7.80354 15.4429L3.53032 11.1996C3.39723 11.0679 3.29654 10.9088 3.23407 10.7342L3.19448 10.6005C3.14075 10.3735 3.15212 10.1363 3.22652 9.91548C3.30195 9.69464 3.43732 9.49834 3.61815 9.34907C3.80002 9.20082 4.01909 9.10472 4.25262 9.072L7.10181 8.6744L7.05484 8.2124ZM7.13093 8.95347L4.29395 9.34907C4.11312 9.37361 3.94262 9.44825 3.80105 9.56378C3.66052 9.67931 3.55512 9.83165 3.49622 10.0034C3.43835 10.1742 3.42905 10.3582 3.47039 10.5351C3.51172 10.7109 3.60265 10.8725 3.73079 11.0013L7.75751 15.0005L7.68142 14.2679L4.41713 11.0264C4.34195 10.9521 4.28363 10.8627 4.24522 10.7649L4.21356 10.6645C4.18153 10.5265 4.18876 10.3833 4.23319 10.2494C4.27866 10.1165 4.36133 9.99789 4.47086 9.9069C4.58039 9.81692 4.71266 9.75865 4.85423 9.73922L7.17884 9.41547L7.13093 8.95347ZM7.20796 9.6936L4.8935 10.0163C4.80463 10.0286 4.71989 10.0654 4.65066 10.1226C4.58143 10.1789 4.52976 10.2545 4.50083 10.3384C4.47293 10.4232 4.46879 10.5132 4.48843 10.6001C4.50909 10.687 4.55353 10.7667 4.61759 10.8291L7.63633 13.8264L7.56024 13.0947L5.65723 11.2055C5.61246 11.1605 5.5764 11.1078 5.55061 11.0504L5.5198 10.9611C5.4981 10.8681 5.50327 10.772 5.53323 10.681C5.56423 10.591 5.619 10.5112 5.6934 10.4509C5.7678 10.3896 5.85667 10.3507 5.95173 10.3374L7.25587 10.1556L7.20796 9.6936ZM7.28405 10.4337L5.99307 10.6145C5.94967 10.6206 5.90937 10.638 5.8763 10.6656C5.8422 10.6932 5.8174 10.73 5.80397 10.7709C5.7895 10.8108 5.78743 10.8548 5.79777 10.8967C5.80707 10.9386 5.82877 10.9775 5.85977 11.0081L7.5142 12.6513L7.28405 10.4337ZM28.2933 3.78176C28.1744 3.78176 28.0556 3.78994 27.9378 3.8063L19.4595 4.98587L20.1303 5.36107L27.522 4.33345C27.8665 4.28525 28.2172 4.31893 28.5452 4.42998L28.7072 4.49193C29.0803 4.6504 29.4027 4.90804 29.6372 5.23624C29.8728 5.56443 30.0123 5.94988 30.0402 6.35168C30.0692 6.75247 29.9855 7.15325 29.7984 7.51109L28.3356 10.3129C28.3992 10.3969 28.4592 10.4837 28.5157 10.5731C28.5552 10.6356 28.5928 10.6991 28.6284 10.7634L30.4385 7.29679C30.6297 6.93077 30.7227 6.52283 30.7082 6.1108C30.6948 5.6998 30.5749 5.29799 30.36 4.94628C30.144 4.59355 29.8412 4.30114 29.4796 4.09769C29.1179 3.89423 28.7097 3.78483 28.2933 3.78176ZM27.8434 4.59008C27.7493 4.59008 27.6543 4.59723 27.5602 4.61052L20.5342 5.58693L21.2059 5.96213L27.0438 5.15046C27.3631 5.10547 27.6917 5.14841 27.9893 5.27621C28.2879 5.40299 28.5442 5.6085 28.7322 5.87023C28.9203 6.13197 29.0319 6.44073 29.0546 6.76075C29.0763 7.08076 29.0102 7.4018 28.8604 7.68705L27.7925 9.73345C27.9162 9.84027 28.0329 9.95498 28.1416 10.0769L29.5473 7.38227C29.6992 7.0919 29.7726 6.7678 29.7612 6.44063C29.7509 6.11346 29.6548 5.79549 29.4843 5.51535C29.3138 5.23521 29.073 5.00313 28.7858 4.84159C28.4985 4.67903 28.174 4.59314 27.8434 4.59008ZM27.298 5.41219C27.2246 5.41219 27.1523 5.41731 27.081 5.42855L21.6107 6.18893L22.2824 6.56413L26.6667 5.95468C26.8511 5.92851 27.038 5.94356 27.215 5.99721L27.3456 6.04465C27.5595 6.13565 27.7434 6.28287 27.8778 6.471C28.0121 6.6581 28.0917 6.87894 28.1082 7.10898C28.1247 7.338 28.0772 7.56804 27.9697 7.77252L27.1731 9.29906C27.3105 9.37615 27.4425 9.46149 27.5684 9.55443L28.6093 7.55822C28.724 7.33534 28.7808 7.08587 28.7725 6.83436C28.7632 6.58285 28.6899 6.33849 28.5586 6.12277C28.4274 5.90806 28.2424 5.73016 28.0223 5.60543C27.8012 5.48069 27.5522 5.41424 27.298 5.41219ZM26.8517 6.22153C26.8041 6.22153 26.7556 6.2246 26.708 6.23073L22.6854 6.79L23.3571 7.1652L26.2908 6.75788C26.4303 6.7405 26.5718 6.75993 26.701 6.81514C26.8302 6.87035 26.9418 6.9593 27.0234 7.07279C27.105 7.18627 27.1526 7.31919 27.1629 7.45823C27.1732 7.59728 27.1443 7.73633 27.0792 7.86004L26.5181 8.93293L26.9258 9.16067L27.7186 7.6437C27.7982 7.49545 27.8354 7.32982 27.8302 7.16419C27.824 6.99754 27.7755 6.83497 27.6887 6.69184C27.6008 6.54972 27.4789 6.43112 27.3322 6.34831C27.1854 6.26652 27.0201 6.22255 26.8517 6.22153ZM26.33 7.03393L23.761 7.39107L24.4327 7.76627L25.4353 7.62805C25.5272 7.61476 25.6233 7.62703 25.7101 7.66486C25.7969 7.70167 25.8724 7.76199 25.9271 7.83867C25.9819 7.91535 26.014 8.00532 26.0212 8.09836C26.0274 8.19242 26.0077 8.28546 25.9643 8.3693L25.8615 8.5652L26.2711 8.7948L26.8281 7.72917C26.855 7.67737 26.8722 7.62102 26.8789 7.56316L26.8808 7.47561C26.8746 7.38769 26.8446 7.30385 26.793 7.23228C26.7413 7.16071 26.671 7.10346 26.5894 7.0687C26.5078 7.03393 26.4189 7.02269 26.33 7.03393ZM25.5086 7.9041H25.4745L24.8366 7.99213L25.6163 8.42893L25.7153 8.24048C25.7339 8.20776 25.7422 8.16891 25.7412 8.12903C25.7401 8.08916 25.7287 8.05031 25.7081 8.01657C25.6874 7.98283 25.6585 7.95522 25.6233 7.93478C25.5882 7.91535 25.5489 7.90513 25.5086 7.9041Z" fill="#C3C3C3"/>
<path fill-rule="evenodd" clip-rule="evenodd" d="M16.836 12.2304C17.303 12.0352 17.8187 11.981 18.3167 12.074C18.8158 12.1671 19.2757 12.4032 19.6384 12.7539V12.4186C19.6384 12.3153 19.6797 12.2171 19.7531 12.1446C19.8275 12.0709 19.9267 12.0311 20.031 12.0311C20.0827 12.03 20.1333 12.0403 20.1809 12.0597C20.2284 12.0791 20.2718 12.1078 20.308 12.1435C20.3441 12.1803 20.3731 12.2233 20.3927 12.2703C20.4123 12.3173 20.4227 12.3674 20.4227 12.4186V16.7464C20.4227 16.8497 20.3813 16.9478 20.308 17.0214C20.2346 17.094 20.1344 17.1349 20.031 17.1349C19.9267 17.1349 19.8275 17.094 19.7531 17.0214C19.6797 16.9478 19.6384 16.8497 19.6384 16.7464V16.4111C19.2757 16.7607 18.8158 16.9979 18.3167 17.091C17.8187 17.184 17.303 17.1288 16.836 16.9345C16.3689 16.7393 15.97 16.4121 15.689 15.9939C15.4089 15.5747 15.2591 15.084 15.2591 14.582C15.2591 14.08 15.4089 13.5892 15.689 13.1711C15.97 12.7529 16.3689 12.4257 16.836 12.2304ZM18.5306 12.941C18.202 12.8071 17.8414 12.7723 17.4932 12.8408C17.1449 12.9093 16.8246 13.078 16.5735 13.3265C16.3234 13.5749 16.1519 13.8918 16.0827 14.2364C16.0134 14.581 16.0486 14.9378 16.185 15.2619C16.3203 15.587 16.5508 15.8641 16.8463 16.0594C17.1408 16.2546 17.488 16.3589 17.8435 16.3589C18.3198 16.3579 18.7755 16.1708 19.1124 15.8385C19.4493 15.5052 19.6384 15.0533 19.6384 14.583C19.6384 14.2313 19.533 13.8878 19.3366 13.5954C19.1393 13.304 18.8582 13.076 18.5306 12.941ZM17.846 13.6837C17.8543 13.6837 17.8615 13.6868 17.8688 13.6908C17.875 13.696 17.8801 13.7021 17.8822 13.7103C17.999 14.0446 18.3875 14.429 18.7254 14.5466C18.7337 14.5486 18.7409 14.5527 18.7461 14.5599C18.7512 14.566 18.7533 14.5732 18.7543 14.5814C18.7543 14.5895 18.7523 14.5977 18.7471 14.6049C18.743 14.611 18.7357 14.6161 18.7275 14.6182C18.3875 14.7357 18.001 15.1191 17.8822 15.4555C17.8801 15.4627 17.875 15.4698 17.8688 15.4749C17.8626 15.4801 17.8543 15.4821 17.846 15.4821C17.8378 15.4821 17.8295 15.4801 17.8233 15.4749C17.8171 15.4698 17.8119 15.4627 17.8099 15.4555C17.691 15.1181 17.3035 14.7357 16.9646 14.6182C16.9563 14.6161 16.9501 14.612 16.945 14.6049C16.9398 14.5987 16.9367 14.5906 16.9367 14.5824C16.9367 14.5742 16.9398 14.567 16.945 14.5599C16.9501 14.5538 16.9563 14.5486 16.9646 14.5466C17.3046 14.429 17.691 14.0456 17.8099 13.7103C17.8119 13.7021 17.8171 13.696 17.8233 13.6908C17.8305 13.6868 17.8378 13.6837 17.846 13.6837ZM12.1459 16.3589C11.7904 16.3589 11.4442 16.2546 11.1487 16.0594C10.8532 15.8641 10.6238 15.586 10.4884 15.2619C10.352 14.9367 10.3169 14.5799 10.3861 14.2354C10.4553 13.8908 10.6269 13.5749 10.878 13.3265C11.1291 13.078 11.4484 12.9083 11.7966 12.8408C12.1448 12.7723 12.5065 12.8071 12.8341 12.942C13.1616 13.076 13.4427 13.304 13.6401 13.5954C13.8364 13.8878 13.9418 14.2313 13.9418 14.583C13.9418 15.0533 13.7527 15.5052 13.4158 15.8385C13.079 16.1718 12.6222 16.3589 12.1459 16.3589ZM12.1459 12.0311C11.4752 12.03 10.8304 12.2897 10.351 12.7539V12.4186C10.351 12.3153 10.3096 12.2171 10.2363 12.1446C10.1619 12.0709 10.0627 12.0311 9.95828 12.0311C9.85495 12.0311 9.75472 12.0709 9.68135 12.1446C9.60798 12.2171 9.56665 12.3153 9.56665 12.4186V18.5049C9.56665 18.6082 9.60798 18.7064 9.68135 18.779C9.75472 18.8526 9.85495 18.8924 9.95828 18.8924C10.0627 18.8924 10.1619 18.8526 10.2363 18.779C10.3096 18.7064 10.351 18.6082 10.351 18.5049V16.4111C10.6537 16.7014 11.0237 16.9131 11.4298 17.0286C11.8348 17.1441 12.2626 17.1595 12.6749 17.0736C13.0872 16.9877 13.4727 16.8026 13.7961 16.5348C14.1195 16.2669 14.3717 15.9244 14.5298 15.5379C14.6889 15.1504 14.7488 14.7312 14.7054 14.3161C14.662 13.9011 14.5153 13.5033 14.2807 13.1567C14.0451 12.8101 13.7269 12.5269 13.3549 12.3306C12.9829 12.1343 12.5675 12.0311 12.1459 12.0311ZM25.7808 12.083C25.7364 12.0574 25.6868 12.0411 25.6362 12.0339C25.5845 12.0278 25.5328 12.0309 25.4832 12.0442C25.4336 12.0574 25.3871 12.0799 25.3458 12.1106C25.3055 12.1423 25.2714 12.1812 25.2456 12.2251L23.4341 15.3291L21.6206 12.2241C21.5948 12.1801 21.5607 12.1403 21.5204 12.1096C21.479 12.0779 21.4325 12.0544 21.3819 12.0411C21.3323 12.0278 21.2806 12.0237 21.229 12.0309C21.1773 12.037 21.1277 12.0544 21.0833 12.0799C21.0388 12.1055 20.9996 12.1392 20.9675 12.1801C20.9365 12.221 20.9138 12.267 20.9004 12.3171C20.8869 12.3662 20.8838 12.4173 20.8911 12.4685C20.8983 12.5196 20.9148 12.5687 20.9417 12.6126L22.9805 16.1052L21.6929 18.3115C21.6671 18.3555 21.6506 18.4045 21.6433 18.4546C21.6361 18.5058 21.6402 18.5569 21.6537 18.607C21.6671 18.6561 21.6898 18.7021 21.7219 18.743C21.7529 18.7828 21.7932 18.8176 21.8376 18.8421C21.8975 18.8759 21.9647 18.8933 22.0329 18.8923C22.1022 18.8923 22.1693 18.8749 22.2292 18.8401C22.2892 18.8064 22.3388 18.7573 22.3729 18.699L25.9245 12.6116C25.9503 12.5676 25.9668 12.5196 25.973 12.4685C25.9803 12.4184 25.9772 12.3672 25.9637 12.3182C25.9503 12.2691 25.9276 12.2231 25.8955 12.1822C25.8645 12.1423 25.8253 12.1086 25.7808 12.083ZM12.3697 9.50747C12.4492 9.50747 12.5143 9.57188 12.5143 9.6506V11.1229C12.5143 11.2026 12.4492 11.267 12.3697 11.267H12.1692C12.0886 11.267 12.0245 11.2026 12.0245 11.1229V9.6506C12.0245 9.57188 12.0886 9.50747 12.1692 9.50747H12.3697ZM12.3709 9.01538C12.4092 9.01538 12.4453 9.03072 12.4732 9.0573C12.5001 9.08388 12.5156 9.12069 12.5156 9.15852V9.19839C12.5156 9.2168 12.5115 9.2352 12.5042 9.25258C12.497 9.26996 12.4867 9.28632 12.4732 9.29961C12.4598 9.3129 12.4433 9.32313 12.4257 9.33028C12.4081 9.33744 12.3895 9.34153 12.3709 9.34153H12.2697C12.1332 9.34153 12.0402 9.42639 12.0237 9.50818V9.15852C12.0237 9.12069 12.0392 9.08388 12.0661 9.0573C12.093 9.03072 12.1301 9.01538 12.1684 9.01538H12.3709ZM10.7698 11.2873C10.8917 11.2873 11.0343 11.2801 11.1097 11.1308L11.9571 9.50726H11.6471C11.5871 9.50828 11.5282 9.52566 11.4776 9.55736C11.427 9.59008 11.3877 9.63608 11.3619 9.69027L10.8287 10.8129C10.8163 10.8395 10.7915 10.8824 10.7698 10.8824C10.7481 10.8824 10.7243 10.8395 10.7109 10.8129L10.1735 9.69027C10.1487 9.63608 10.1084 9.59008 10.0588 9.55736C10.0082 9.52566 9.9493 9.50828 9.88936 9.50726H9.57833L10.4257 11.1308C10.5104 11.2903 10.6819 11.2873 10.7698 11.2873ZM21.4967 11.2673C21.535 11.2673 21.5722 11.252 21.599 11.2254C21.6259 11.1978 21.6414 11.162 21.6414 11.1242V10.9688H21.5195C21.4306 10.9688 21.2467 10.9647 21.1371 10.8921C20.9956 10.7991 21.008 10.6334 21.008 10.5138V9.23786C21.0069 9.20003 20.9914 9.16424 20.9646 9.13766C20.9377 9.11108 20.9005 9.09676 20.8633 9.09574H20.6608C20.6225 9.09676 20.5853 9.11108 20.5585 9.13868C20.5316 9.16527 20.5161 9.20207 20.5161 9.2399V10.6958C20.5161 10.9177 20.5957 11.0455 20.7383 11.1406C20.8809 11.2356 21.0359 11.2694 21.3335 11.2694L21.4967 11.2673ZM15.35 10.6956C15.35 10.9185 15.4296 11.0453 15.5722 11.1404C15.7148 11.2354 15.8708 11.2702 16.1674 11.2702H16.3296C16.3679 11.2702 16.4051 11.2549 16.4319 11.2273C16.4588 11.2007 16.4743 11.1649 16.4743 11.126V10.9706H16.3524C16.2645 10.9706 16.0796 10.9676 15.9711 10.895C15.8285 10.8019 15.8409 10.6353 15.8409 10.5157V9.80611H16.8639V10.6956C16.8639 10.9185 16.9434 11.0453 17.0871 11.1404C17.2297 11.2354 17.3847 11.2702 17.6823 11.2702H17.8435C17.8817 11.2702 17.9189 11.2549 17.9458 11.2273C17.9726 11.2007 17.9881 11.1649 17.9881 11.126V10.9706H17.8662C17.7784 10.9706 17.5934 10.9676 17.4849 10.895C17.3423 10.8019 17.3547 10.6353 17.3547 10.5157V9.80611H17.8321C17.8703 9.80611 17.9075 9.7918 17.9344 9.76419C17.9613 9.73761 17.9768 9.7008 17.9768 9.66297V9.50757H17.3547V9.23765C17.3547 9.19982 17.3392 9.16404 17.3123 9.13643C17.2855 9.10985 17.2483 9.09452 17.21 9.09452H17.0075C16.9693 9.09452 16.9331 9.10985 16.9052 9.13643C16.8783 9.16404 16.8628 9.19982 16.8628 9.23765V9.50757H15.8409V9.23765C15.8409 9.19982 15.8254 9.16404 15.7985 9.13643C15.7716 9.10985 15.7344 9.09452 15.6962 9.09452H15.4937C15.4554 9.09452 15.4193 9.10985 15.3914 9.13643C15.3645 9.16404 15.349 9.19982 15.349 9.23765V9.50757H15.0431V9.66297C15.0431 9.7008 15.0586 9.73761 15.0855 9.76419C15.1124 9.7918 15.1496 9.80611 15.1878 9.80611H15.349L15.35 10.6956ZM14.3185 10.2182H13.62C13.4433 10.2182 13.2986 10.298 13.2986 10.3982V10.2182C13.3028 10.1017 13.2986 10.0056 13.3999 9.91868C13.5342 9.79906 13.7357 9.80212 13.8659 9.80212C14.0044 9.80212 14.1635 9.80928 14.2855 9.88187C14.3268 9.90641 14.3619 9.94015 14.3878 9.98207C14.4126 10.023 14.426 10.07 14.4281 10.118C14.4281 10.162 14.4146 10.2182 14.3185 10.2182ZM14.83 10.4503C14.922 10.3777 14.9344 10.2745 14.9344 10.1845C14.9344 9.96264 14.8807 9.74385 14.6203 9.614C14.4146 9.51074 14.146 9.50051 13.8866 9.50051C13.6768 9.50051 13.2986 9.50051 13.0558 9.66717C12.813 9.8328 12.7913 10.0751 12.7913 10.4043C12.7913 10.6364 12.8037 10.8787 12.9514 11.0454C13.1354 11.2509 13.4061 11.2672 13.6303 11.2672H14.7184C14.7381 11.2672 14.7567 11.2631 14.7742 11.256C14.7918 11.2488 14.8073 11.2386 14.8208 11.2253C14.8342 11.212 14.8455 11.1967 14.8528 11.1783C14.86 11.1609 14.8631 11.1425 14.8631 11.1241V10.9687H13.7771C13.5973 10.9687 13.3916 10.9482 13.3286 10.7591C13.309 10.6804 13.2997 10.5986 13.2986 10.5168H14.5903C14.6761 10.5229 14.7608 10.4994 14.83 10.4503ZM18.6047 10.2177C18.6089 10.1012 18.6047 10.0051 18.706 9.91817C18.8403 9.79854 19.0418 9.80161 19.171 9.80161C19.3095 9.80161 19.4696 9.80877 19.5905 9.88136C19.6329 9.9059 19.668 9.93964 19.6928 9.98156C19.7176 10.0225 19.7321 10.0695 19.7342 10.1175C19.7342 10.1635 19.7207 10.2198 19.6246 10.2198H18.9261C18.7484 10.2198 18.6047 10.3005 18.6047 10.3997V10.2177ZM18.9364 11.2677H20.0245C20.0628 11.2677 20.1 11.2524 20.1268 11.2258C20.1537 11.1982 20.1692 11.1624 20.1692 11.1236V10.9682H19.0832C18.9023 10.9682 18.6967 10.9488 18.6337 10.7596C18.6151 10.6799 18.6047 10.5991 18.6047 10.5173H19.8964C19.9822 10.5234 20.0659 10.4999 20.1361 10.4508C20.2281 10.3772 20.2405 10.275 20.2405 10.185C20.2405 9.96213 20.1857 9.74333 19.9253 9.61349C19.7207 9.51125 19.4521 9.50102 19.1927 9.50102C18.9819 9.50102 18.6047 9.50102 18.3619 9.66665C18.1191 9.83331 18.0974 10.0756 18.0974 10.4038C18.0974 10.6369 18.1098 10.8792 18.2565 11.0449C18.4415 11.2504 18.7101 11.2677 18.9364 11.2677Z" fill="white"/>
</g>
</svg>
