<svg width="29" height="28" viewBox="0 0 29 28" fill="none" xmlns="http://www.w3.org/2000/svg">
<g clip-path="url(#clip0_1242_944)">
<g opacity="0.496582">
<path d="M25.1333 0H3.86667C1.73117 0 0 1.67147 0 3.73333V24.2647C0 26.3265 1.73117 27.998 3.86667 27.998H25.1333C27.2688 27.998 29 26.3265 29 24.2647V3.73333C29 1.67147 27.2688 0 25.1333 0Z" fill="white"/>
<path fill-rule="evenodd" clip-rule="evenodd" d="M25.9262 0C26.2959 0.039253 26.69 0.302254 27.0667 0.501144C27.0795 0.507942 27.0537 0.53276 27.0667 0.539828C26.6021 0.436797 26.314 0.51926 25.9613 0.588953C22.5208 1.26856 19.0789 1.94123 15.6373 2.61561C12.2492 3.27953 8.86148 3.94605 5.47235 4.60563C3.83028 4.92521 2.82565 6.39124 3.15675 8.01448C4.4382 14.2978 5.7237 20.5804 7.00005 26.8647C7.07547 27.236 7.2074 27.6015 7.18451 27.9894L2.52711 28C1.0998 27.8202 0.129352 26.8257 0 25.4104C0.00179578 25.2823 0.00493838 25.1541 0.00493838 25.026L0.0049945 2.85978C0.0049945 2.76825 0.00173966 2.67677 0 2.5853C0.140688 1.15645 1.14812 0.148517 2.58356 0.000495057C4.06872 0.00148517 5.55383 0.00313536 7.03899 0.00335539C13.2974 0.00423549 19.5559 0.00462053 25.8143 0.00500558C25.8517 0.00500558 25.889 0.0017052 25.9262 0ZM13.3149 6.09143C14.0596 6.13203 14.3102 6.63003 13.9469 7.2902C13.528 8.05156 12.9435 8.69355 12.4309 9.38712C11.9064 10.097 11.3603 10.7906 10.8245 11.4921C10.8034 11.5196 10.7917 11.5545 10.775 11.5874C10.8755 11.6589 10.9732 11.627 11.0639 11.6273C11.857 11.6304 12.6501 11.6215 13.4431 11.6317C14.0634 11.6398 14.3691 11.9983 14.2467 12.5405C14.1951 12.7689 14.0576 12.9137 13.8447 12.99C13.6528 13.0587 13.453 13.0667 13.2515 13.0665C12.1527 13.0652 11.0538 13.0653 9.95506 13.0664C9.75376 13.0665 9.55556 13.0509 9.35908 13.0022C8.76131 12.8538 8.5211 12.3143 8.8444 11.7787C9.19215 11.2026 9.63997 10.6984 10.0437 10.1625C10.6788 9.31945 11.3207 8.4816 11.96 7.64172C11.9992 7.5902 12.0757 7.54542 12.0343 7.47131C11.9956 7.4019 11.9132 7.43861 11.8515 7.43837C11.1349 7.43558 10.4183 7.43663 9.70165 7.43605C9.54879 7.43593 9.39683 7.43262 9.25114 7.37227C8.97776 7.25895 8.78886 6.98556 8.80768 6.72291C8.82828 6.43534 9.04341 6.18314 9.33555 6.11303C9.42805 6.09079 9.52423 6.07272 9.61879 6.07237C10.8509 6.06813 12.0842 6.02428 13.3149 6.09143ZM23.7225 8.05783C25.0843 8.07508 26.1041 9.14863 26.1 10.5607C26.0957 12.0391 25.0383 13.0899 23.5785 13.0663C22.235 13.0445 21.2688 11.9434 21.2911 10.4594C21.3121 9.0636 22.3479 8.04046 23.7225 8.05783ZM17.4232 8.38514L17.5281 8.48717C17.6037 8.57119 17.6492 8.56463 17.7082 8.50716L17.7455 8.4669C18.0281 8.14076 18.2634 8.06624 18.5683 8.18467C18.8735 8.30328 19.0068 8.53154 19.0083 8.9498L19.0086 10.575C19.0084 11.1263 19.0109 11.6778 19.0076 12.2292C19.0054 12.5754 18.837 12.8378 18.565 12.9362C18.2583 13.0472 17.9849 12.9642 17.7543 12.6777L17.709 12.6156C17.6746 12.5704 17.6406 12.5502 17.5473 12.6194C16.5373 13.3679 15.3858 13.1526 14.65 12.0896C13.8425 10.9228 14.157 9.15309 15.3011 8.37768C15.8778 7.98682 16.8687 7.9119 17.4232 8.38514ZM20.1561 5.60017C20.5247 5.6083 20.8621 5.91446 20.851 6.39213C20.8285 7.35858 20.8443 8.32589 20.8443 9.29286C20.8443 10.2598 20.8286 11.2271 20.851 12.1936C20.8619 12.6628 20.5299 12.9763 20.1544 12.9842C19.7558 12.9926 19.4625 12.6558 19.4621 12.192C19.4602 10.2581 19.4602 8.32415 19.4621 6.39022C19.4626 5.92631 19.7565 5.59134 20.1561 5.60017ZM15.6206 10.5572C15.6229 10.8637 15.6929 11.1503 15.8777 11.3985C16.2359 11.8794 16.9807 11.8802 17.3418 11.4028C17.6798 10.9559 17.6893 10.1952 17.3607 9.7442C17.2388 9.57686 17.0857 9.45599 16.8813 9.40104C16.1832 9.21349 15.6228 9.72578 15.6206 10.5572ZM22.7283 10.2415C22.5918 11.0134 22.94 11.6668 23.5263 11.7393C24.2059 11.8233 24.6748 11.3427 24.676 10.561C24.6768 9.96511 24.3855 9.51177 23.9268 9.39537C23.35 9.24894 22.8401 9.60889 22.7283 10.2415Z" fill="#A8A8A8"/>
<path fill-rule="evenodd" clip-rule="evenodd" d="M22.2148 14.0099C22.7712 14.0102 23.0713 14.306 23.0719 14.8488C23.0743 17.2126 23.0743 19.5764 23.0719 21.9402C23.0714 22.5032 22.7586 22.8015 22.1721 22.806C21.6692 22.8099 21.1661 22.8067 20.6632 22.8066H20.5348C21.1484 21.3636 21.75 19.9482 22.3521 18.533C22.4383 18.3304 22.5322 18.1309 22.6136 17.9266C22.764 17.5492 22.6455 17.2276 22.3157 17.0983C21.975 16.9646 21.6156 17.108 21.4624 17.47C21.166 18.1704 20.8877 18.878 20.5931 19.6043C20.3341 18.908 20.0884 18.2306 19.8297 17.5578C19.6235 17.0217 19.0544 16.8792 18.6977 17.2664C18.4968 17.4844 18.5558 17.7248 18.6519 17.9603C19.0572 18.9525 19.4622 19.9448 19.8784 20.9327C19.9309 21.0573 19.9289 21.1491 19.8716 21.2649C19.7455 21.5196 19.6389 21.7833 19.514 22.0385C19.3906 22.2907 19.3603 22.5415 19.4954 22.8068C16.1516 22.8068 12.8207 22.8087 9.48981 22.8049C8.93864 22.8043 8.62619 22.4992 8.62516 21.9622C8.62066 19.5892 8.62066 17.2163 8.62499 14.8433C8.62596 14.2982 8.92781 14.0104 9.4885 14.0101C13.7306 14.0078 17.9727 14.0077 22.2148 14.0099ZM10.9926 15.4192L10.1389 15.4249C9.55304 15.4257 9.36046 15.6171 9.3587 16.189L9.35833 20.7879L9.3664 20.9094C9.41219 21.2893 9.64304 21.5016 10.017 21.5017C10.4278 21.5017 10.6634 21.2513 10.6673 20.8042C10.6704 20.4474 10.6844 20.0894 10.6623 19.7338L10.6613 19.6609C10.6691 19.4836 10.7622 19.4401 10.9653 19.4548L11.2205 19.4654C11.3912 19.4678 11.5624 19.4621 11.7327 19.455C12.9524 19.4041 13.8094 18.6033 13.8323 17.499C13.8554 16.3757 13.0626 15.5388 11.844 15.4463C11.5613 15.4249 11.2771 15.4193 10.9926 15.4192ZM14.6034 17.4805C13.5222 18.386 13.501 20.1185 14.5637 21.0441C15.1911 21.5906 16.2962 21.7106 16.9557 21.0507L17.0477 21.1645L17.0907 21.2136C17.2935 21.4303 17.5528 21.4704 17.8198 21.3807C18.0826 21.2925 18.2361 21.0944 18.237 20.8161C18.2402 19.7898 18.2439 18.7635 18.235 17.7374C18.2318 17.3741 17.9404 17.1371 17.5646 17.1369C17.2792 17.1366 17.1081 17.3082 16.9508 17.5019C16.2758 16.8311 15.1817 16.9963 14.6034 17.4805ZM16.0239 18.2307C16.4199 18.2357 16.7298 18.4654 16.8553 18.8575C16.8999 18.9966 16.9388 19.1395 16.9214 19.2499L16.9158 19.3781C16.8605 20.0442 16.3989 20.4234 15.806 20.3029C15.5552 20.252 15.3827 20.1075 15.2642 19.8986C15.0716 19.5591 15.0548 19.2011 15.1781 18.8385C15.3115 18.4463 15.6266 18.2257 16.0239 18.2307ZM10.8846 16.5455L11.0825 16.5526L11.2814 16.5563L11.5844 16.5507L11.7345 16.5591C12.1579 16.6083 12.4664 16.9824 12.4693 17.4329C12.4722 17.8881 12.1746 18.2683 11.7477 18.3141L11.3403 18.3637C11.1108 18.3862 10.8872 18.3844 10.7254 18.2798C10.6197 18.2115 10.618 18.0506 10.6354 17.8715L10.6599 17.6527C10.6674 17.5801 10.6726 17.5093 10.6699 17.4451L10.6674 17.2169C10.6689 17.0647 10.6738 16.9124 10.6645 16.7608L10.6642 16.6955C10.6721 16.5769 10.7329 16.5306 10.8846 16.5455Z" fill="#818181"/>
</g>
</g>
<defs>
<clipPath id="clip0_1242_944">
<rect width="29" height="28" fill="white"/>
</clipPath>
</defs>
</svg>
