<svg xmlns="http://www.w3.org/2000/svg" width="542" height="146" viewBox="0 0 542 146" version="1.1"><path d="M 49 72.500 L 49 111 58.912 111 L 68.824 111 69.496 107.023 L 70.168 103.046 72.572 105.904 C 79.582 114.234, 92.411 113.991, 99.967 105.384 C 105.986 98.529, 108.297 81.833, 104.678 71.339 C 102.321 64.504, 95.033 57.519, 89.234 56.540 C 84.666 55.768, 77.370 58.364, 73.262 62.223 L 71 64.349 71 49.174 L 71 34 60 34 L 49 34 49 72.500 M 443 72.467 L 443 111 454.512 111 L 466.024 111 465.762 72.750 L 465.500 34.500 454.250 34.217 L 443 33.934 443 72.467 M 472.667 34.667 C 472.300 35.033, 472 52.358, 472 73.167 L 472 111 483.500 111 L 495 111 495 72.500 L 495 34 484.167 34 C 478.208 34, 473.033 34.300, 472.667 34.667 M 186 41.534 L 175.500 44.739 175.204 51.369 L 174.909 58 170.454 58 L 166 58 166 65.500 L 166 73 170.500 73 L 175 73 175.016 86.750 C 175.031 99.119, 175.257 100.896, 177.267 104.444 C 180.497 110.147, 184.924 112.393, 192.928 112.388 C 196.543 112.386, 201.412 111.831, 203.750 111.154 L 208 109.923 208 102.461 L 208 95 204.035 95 C 198.777 95, 198 93.334, 198 82.066 L 198 73 203.042 73 L 208.084 73 207.792 65.250 L 207.500 57.500 202.750 57.195 L 198 56.890 198 48.004 C 198 43.117, 197.662 38.941, 197.250 38.724 C 196.838 38.507, 191.775 39.772, 186 41.534 M 223.390 39.027 C 213.138 40.866, 213 40.999, 213 49.092 C 213 56.030, 213.064 56.214, 215.250 55.561 C 219.053 54.424, 229.682 53.703, 232.439 54.395 C 235.567 55.180, 239 58.399, 239 60.545 C 239 61.395, 237.895 63.195, 236.545 64.545 C 234.481 66.610, 233.131 67, 228.045 67 L 222 67 222 74.769 L 222 82.538 228.392 82.519 C 233.293 82.504, 235.276 82.945, 236.892 84.405 C 239.021 86.329, 239.646 90.434, 238.164 92.768 C 236.147 95.947, 226.731 96.182, 215.250 93.340 C 213.056 92.797, 213 92.986, 213 100.864 L 213 108.944 218.750 110.693 C 222.581 111.858, 227.837 112.441, 234.500 112.441 C 245.937 112.440, 252.383 110.295, 257.826 104.680 C 261.043 101.360, 264 94.490, 264 90.334 C 264 86.303, 260.191 80.155, 255.958 77.354 L 251.956 74.705 254.728 72.996 C 259.463 70.076, 261.267 67.275, 261.768 62.066 C 262.456 54.900, 261.323 50.438, 257.795 46.420 C 252.763 40.688, 247.838 38.743, 237.500 38.405 C 232.550 38.242, 226.200 38.522, 223.390 39.027 M 291.248 39.442 C 275.132 43.346, 266.632 56.268, 266.541 77 C 266.490 88.858, 268.503 95.118, 274.520 101.811 C 286.387 115.010, 307.069 116.116, 319.293 104.205 C 328.828 94.916, 327.645 75.390, 317.118 68.299 C 310.598 63.908, 300.971 62.732, 294.314 65.513 C 290.054 67.293, 289.531 67.007, 290.437 63.394 C 292.491 55.210, 303.425 52.057, 317.499 55.589 L 320 56.217 320 48.211 L 320 40.205 313.668 39.103 C 305.638 37.704, 297.942 37.821, 291.248 39.442 M 331 59.863 L 331 79.727 336.206 78.781 C 343.216 77.507, 349.682 78.591, 352.626 81.535 C 357.092 86.002, 354.851 92.995, 348.436 94.605 C 345.729 95.285, 336.192 94.592, 332.250 93.430 C 330.041 92.779, 330 92.923, 330 101.247 L 330 109.727 336.250 111.113 C 345.221 113.104, 358.444 112.884, 364 110.653 C 373.537 106.823, 378.424 99.332, 378.470 88.473 C 378.529 74.515, 371.485 67, 358.343 67 L 352 67 352 62.117 C 352 56.184, 352.353 56.033, 366.250 56.014 L 376 56 376 48 L 376 40 353.500 40 L 331 40 331 59.863 M 127.479 57.735 C 117.494 61.320, 112.978 66.570, 111.025 76.868 C 109.881 82.898, 111.307 93.733, 113.911 98.794 C 118.497 107.710, 127.270 112.361, 139.500 112.361 C 147.136 112.361, 156.498 110.769, 160.250 108.833 C 161.583 108.145, 162 106.667, 162 102.631 C 162 99.718, 161.751 97.085, 161.447 96.780 C 161.143 96.476, 158.822 96.851, 156.288 97.614 C 153.755 98.376, 148.794 99, 145.264 99 C 139.504 99, 138.547 98.700, 135.923 96.077 C 130.261 90.415, 131.154 90, 149 90 L 165 90 165 84.115 C 165 72.662, 159.954 63.058, 151.735 58.865 C 145.926 55.901, 134.121 55.351, 127.479 57.735 M 396 57.145 C 389.436 58.953, 384 61.270, 384 62.259 C 384 62.802, 385.436 65.858, 387.191 69.050 C 390.377 74.846, 390.385 74.852, 393.141 73.427 C 398.134 70.845, 405.435 69.771, 409.872 70.965 C 413.360 71.905, 417 75.023, 417 77.072 C 417 77.417, 412.387 77.967, 406.750 78.296 C 391.112 79.207, 385.366 81.856, 382.445 89.504 C 380.179 95.439, 381.763 101.707, 386.607 105.959 C 393.896 112.360, 409.293 112.831, 415.660 106.850 L 418 104.651 418 107.326 L 418 110 427.500 110 L 437 110 437 93.182 C 437 72.835, 435.885 67.935, 430.054 62.668 C 427.804 60.635, 423.875 58.446, 420.878 57.556 C 415.084 55.836, 401.563 55.612, 396 57.145 M 135.766 70.750 C 134.917 71.713, 133.912 73.963, 133.532 75.750 L 132.841 79 138.921 79 C 144.901 79, 145 78.955, 145 76.223 C 145 70.189, 139.262 66.788, 135.766 70.750 M 73.273 74.706 C 72.062 76.555, 71.500 79.358, 71.500 83.555 C 71.500 90.862, 73.360 95, 76.643 95 C 79.853 95, 82 90.391, 82 83.500 C 82 73.494, 77.222 68.679, 73.273 74.706 M 294.303 78.196 C 291.250 79.672, 288.708 85.392, 289.500 89 C 289.851 90.598, 291.040 93.052, 292.142 94.453 C 296.644 100.177, 305.007 95.533, 304.996 87.316 C 304.992 84.327, 301.664 78, 300.096 78 C 299.583 78, 298.564 77.805, 297.832 77.567 C 297.099 77.329, 295.511 77.612, 294.303 78.196 M 402.200 90.200 C 400.299 92.101, 400.742 96.792, 402.934 97.965 C 407.048 100.166, 414.982 98.095, 416.379 94.455 C 418.191 89.733, 417.361 89, 410.200 89 C 406.244 89, 402.898 89.502, 402.200 90.200" stroke="none" fill="#f7f9f9" fill-rule="evenodd"/><path d="M 43.229 25.669 C 42.530 25.951, 41.292 27.468, 40.479 29.041 C 39.243 31.430, 39 38.741, 39 73.496 L 39 115.091 41.301 117.392 C 43.535 119.626, 44.277 119.709, 66.928 120.242 C 93.936 120.879, 96.017 120.488, 104.053 113.262 L 109.118 108.709 112.809 112.287 C 114.839 114.255, 118.975 117.119, 122 118.651 C 126.824 121.095, 128.873 121.485, 138.676 121.824 C 148.294 122.157, 151.290 121.843, 160.176 119.571 C 165.854 118.119, 170.997 116.276, 171.603 115.475 C 172.552 114.222, 172.947 114.284, 174.425 115.917 C 175.370 116.961, 178.473 118.820, 181.321 120.047 C 187.960 122.909, 199.771 123.012, 208.500 120.285 C 213.866 118.608, 215.081 118.551, 220 119.740 C 223.450 120.574, 229.413 120.931, 236 120.698 C 247.704 120.282, 253.881 118.264, 261.694 112.300 L 266 109.013 270.466 112.422 C 283.037 122.018, 302.681 123.551, 315.748 115.957 C 318.939 114.103, 319.077 114.104, 323.546 116.020 C 334.592 120.755, 350.482 122.946, 360.500 121.117 C 363.800 120.514, 369.057 118.715, 372.181 117.118 C 377.268 114.520, 378.076 114.365, 379.896 115.640 C 386.069 119.963, 388.228 120.136, 442.807 120.677 C 498.672 121.230, 499.697 121.156, 501.870 116.385 C 503.567 112.662, 503.416 31.381, 501.706 28 L 500.442 25.500 467.065 25.236 C 437.068 24.999, 433.501 25.142, 431.844 26.641 C 430.251 28.083, 430 29.912, 430 40.064 L 430 51.819 426.250 50.028 C 417.786 45.986, 405.123 44.985, 392.750 47.380 L 386 48.687 386 42.899 C 386 35.849, 383.514 32.360, 377.500 30.972 C 372.859 29.900, 354.338 29.871, 335 30.906 C 327.575 31.303, 320.033 31.240, 318.240 30.765 C 300.977 26.190, 279.996 29.176, 270.143 37.610 L 265.944 41.203 261.641 37.237 C 253.213 29.468, 240.351 26.816, 223.471 29.366 C 217.956 30.199, 212.196 31.355, 210.673 31.934 C 208.362 32.813, 207.414 32.627, 204.961 30.813 L 202.019 28.638 192.759 31.388 C 187.667 32.900, 180.400 35.070, 176.610 36.209 C 168.365 38.687, 166 40.758, 166 45.500 C 166 48.917, 165.905 49, 162 49 C 159.316 49, 158 49.443, 158 50.345 C 158 51.401, 156.768 51.273, 152.250 49.743 C 143.690 46.845, 129.692 47.575, 121.500 51.346 C 118.200 52.865, 114.129 55.434, 112.453 57.054 L 109.405 59.999 105.453 55.880 C 100.160 50.364, 92.925 47.022, 86.250 47.010 L 81 47 81 38.073 C 81 29.619, 80.860 29.035, 78.365 27.073 C 75.944 25.168, 74.465 25.006, 60.115 25.079 C 51.527 25.122, 43.928 25.388, 43.229 25.669 M 49 72.500 L 49 111 58.912 111 L 68.824 111 69.496 107.023 L 70.168 103.046 72.572 105.904 C 79.582 114.234, 92.411 113.991, 99.967 105.384 C 105.986 98.529, 108.297 81.833, 104.678 71.339 C 102.321 64.504, 95.033 57.519, 89.234 56.540 C 84.666 55.768, 77.370 58.364, 73.262 62.223 L 71 64.349 71 49.174 L 71 34 60 34 L 49 34 49 72.500 M 443 72.467 L 443 111 454.512 111 L 466.024 111 465.762 72.750 L 465.500 34.500 454.250 34.217 L 443 33.934 443 72.467 M 472.667 34.667 C 472.300 35.033, 472 52.358, 472 73.167 L 472 111 483.500 111 L 495 111 495 72.500 L 495 34 484.167 34 C 478.208 34, 473.033 34.300, 472.667 34.667 M 186 41.534 L 175.500 44.739 175.204 51.369 L 174.909 58 170.454 58 L 166 58 166 65.500 L 166 73 170.500 73 L 175 73 175.016 86.750 C 175.031 99.119, 175.257 100.896, 177.267 104.444 C 180.497 110.147, 184.924 112.393, 192.928 112.388 C 196.543 112.386, 201.412 111.831, 203.750 111.154 L 208 109.923 208 102.461 L 208 95 204.035 95 C 198.777 95, 198 93.334, 198 82.066 L 198 73 203.042 73 L 208.084 73 207.792 65.250 L 207.500 57.500 202.750 57.195 L 198 56.890 198 48.004 C 198 43.117, 197.662 38.941, 197.250 38.724 C 196.838 38.507, 191.775 39.772, 186 41.534 M 223.390 39.027 C 213.138 40.866, 213 40.999, 213 49.092 C 213 56.030, 213.064 56.214, 215.250 55.561 C 219.053 54.424, 229.682 53.703, 232.439 54.395 C 235.567 55.180, 239 58.399, 239 60.545 C 239 61.395, 237.895 63.195, 236.545 64.545 C 234.481 66.610, 233.131 67, 228.045 67 L 222 67 222 74.769 L 222 82.538 228.392 82.519 C 233.293 82.504, 235.276 82.945, 236.892 84.405 C 239.021 86.329, 239.646 90.434, 238.164 92.768 C 236.147 95.947, 226.731 96.182, 215.250 93.340 C 213.056 92.797, 213 92.986, 213 100.864 L 213 108.944 218.750 110.693 C 222.581 111.858, 227.837 112.441, 234.500 112.441 C 245.937 112.440, 252.383 110.295, 257.826 104.680 C 261.043 101.360, 264 94.490, 264 90.334 C 264 86.303, 260.191 80.155, 255.958 77.354 L 251.956 74.705 254.728 72.996 C 259.463 70.076, 261.267 67.275, 261.768 62.066 C 262.456 54.900, 261.323 50.438, 257.795 46.420 C 252.763 40.688, 247.838 38.743, 237.500 38.405 C 232.550 38.242, 226.200 38.522, 223.390 39.027 M 291.248 39.442 C 275.132 43.346, 266.632 56.268, 266.541 77 C 266.490 88.858, 268.503 95.118, 274.520 101.811 C 286.387 115.010, 307.069 116.116, 319.293 104.205 C 328.828 94.916, 327.645 75.390, 317.118 68.299 C 310.598 63.908, 300.971 62.732, 294.314 65.513 C 290.054 67.293, 289.531 67.007, 290.437 63.394 C 292.491 55.210, 303.425 52.057, 317.499 55.589 L 320 56.217 320 48.211 L 320 40.205 313.668 39.103 C 305.638 37.704, 297.942 37.821, 291.248 39.442 M 331 59.863 L 331 79.727 336.206 78.781 C 343.216 77.507, 349.682 78.591, 352.626 81.535 C 357.092 86.002, 354.851 92.995, 348.436 94.605 C 345.729 95.285, 336.192 94.592, 332.250 93.430 C 330.041 92.779, 330 92.923, 330 101.247 L 330 109.727 336.250 111.113 C 345.221 113.104, 358.444 112.884, 364 110.653 C 373.537 106.823, 378.424 99.332, 378.470 88.473 C 378.529 74.515, 371.485 67, 358.343 67 L 352 67 352 62.117 C 352 56.184, 352.353 56.033, 366.250 56.014 L 376 56 376 48 L 376 40 353.500 40 L 331 40 331 59.863 M 127.479 57.735 C 117.494 61.320, 112.978 66.570, 111.025 76.868 C 109.881 82.898, 111.307 93.733, 113.911 98.794 C 118.497 107.710, 127.270 112.361, 139.500 112.361 C 147.136 112.361, 156.498 110.769, 160.250 108.833 C 161.583 108.145, 162 106.667, 162 102.631 C 162 99.718, 161.751 97.085, 161.447 96.780 C 161.143 96.476, 158.822 96.851, 156.288 97.614 C 153.755 98.376, 148.794 99, 145.264 99 C 139.504 99, 138.547 98.700, 135.923 96.077 C 130.261 90.415, 131.154 90, 149 90 L 165 90 165 84.115 C 165 72.662, 159.954 63.058, 151.735 58.865 C 145.926 55.901, 134.121 55.351, 127.479 57.735 M 396 57.145 C 389.436 58.953, 384 61.270, 384 62.259 C 384 62.802, 385.436 65.858, 387.191 69.050 C 390.377 74.846, 390.385 74.852, 393.141 73.427 C 398.134 70.845, 405.435 69.771, 409.872 70.965 C 413.360 71.905, 417 75.023, 417 77.072 C 417 77.417, 412.387 77.967, 406.750 78.296 C 391.112 79.207, 385.366 81.856, 382.445 89.504 C 380.179 95.439, 381.763 101.707, 386.607 105.959 C 393.896 112.360, 409.293 112.831, 415.660 106.850 L 418 104.651 418 107.326 L 418 110 427.500 110 L 437 110 437 93.182 C 437 72.835, 435.885 67.935, 430.054 62.668 C 427.804 60.635, 423.875 58.446, 420.878 57.556 C 415.084 55.836, 401.563 55.612, 396 57.145 M 135.766 70.750 C 134.917 71.713, 133.912 73.963, 133.532 75.750 L 132.841 79 138.921 79 C 144.901 79, 145 78.955, 145 76.223 C 145 70.189, 139.262 66.788, 135.766 70.750 M 73.273 74.706 C 72.062 76.555, 71.500 79.358, 71.500 83.555 C 71.500 90.862, 73.360 95, 76.643 95 C 79.853 95, 82 90.391, 82 83.500 C 82 73.494, 77.222 68.679, 73.273 74.706 M 294.303 78.196 C 291.250 79.672, 288.708 85.392, 289.500 89 C 289.851 90.598, 291.040 93.052, 292.142 94.453 C 296.644 100.177, 305.007 95.533, 304.996 87.316 C 304.992 84.327, 301.664 78, 300.096 78 C 299.583 78, 298.564 77.805, 297.832 77.567 C 297.099 77.329, 295.511 77.612, 294.303 78.196 M 402.200 90.200 C 400.299 92.101, 400.742 96.792, 402.934 97.965 C 407.048 100.166, 414.982 98.095, 416.379 94.455 C 418.191 89.733, 417.361 89, 410.200 89 C 406.244 89, 402.898 89.502, 402.200 90.200" stroke="none" fill="#077d5c" fill-rule="evenodd"/></svg>