<svg width="22" height="20" viewBox="0 0 22 20" fill="none" xmlns="http://www.w3.org/2000/svg">
<path d="M16.3879 9.63076C19.1216 9.63076 21.3361 11.8615 21.3361 14.6154C21.3361 17.3692 19.1216 19.6 16.3879 19.6C13.6541 19.6 11.4396 17.3692 11.4396 14.6154C11.4396 11.8615 13.6541 9.63076 16.3879 9.63076ZM8.23244 0.399994C9.38932 0.399994 10.3667 1.14615 10.7409 2.17692H14.0856C15.063 2.17692 15.8648 2.97692 15.8648 3.95384V7.5423C12.2223 7.81153 9.33969 10.8769 9.3435 14.6154C9.3435 16.0654 9.78258 17.4154 10.5271 18.5423H2.37932C1.40189 18.5423 0.600098 17.7423 0.600098 16.7654V3.95384C0.600098 2.97692 1.40189 2.17692 2.37932 2.17692H5.72396C6.09432 1.14615 7.07556 0.399994 8.23244 0.399994ZM16.9529 10.9308L15.7961 10.9615C15.7312 10.9615 15.6815 11.0154 15.6815 11.0808L15.6968 11.6615C15.5097 11.7 15.3341 11.7577 15.1699 11.8308C14.8377 11.9808 14.5819 12.1961 14.4101 12.4769C14.2421 12.7538 14.1619 13.0577 14.1696 13.3731C14.1772 13.6654 14.2612 13.9269 14.4139 14.1577C14.5666 14.3885 14.7957 14.5769 15.0897 14.7231C15.3112 14.8346 15.6892 14.9461 16.2199 15.0577C16.7277 15.1654 17.0598 15.2461 17.2049 15.3C17.4149 15.3731 17.5638 15.4654 17.6478 15.5692C17.7318 15.6692 17.7738 15.7885 17.7776 15.9269C17.7815 16.0615 17.7395 16.1961 17.6593 16.3154C17.5753 16.4385 17.4417 16.5423 17.2584 16.6192C17.0637 16.7 16.8308 16.7461 16.5711 16.7538C16.2771 16.7615 16.0099 16.7192 15.7732 16.6231C15.5441 16.5308 15.3761 16.4077 15.2692 16.2577C15.1584 16.1038 15.0859 15.8961 15.0477 15.6423L15.0401 15.5961C15.0324 15.5385 14.979 15.4961 14.9217 15.4961H14.9103L14.1237 15.5885C14.0627 15.5961 14.0168 15.65 14.0207 15.7115L14.0245 15.7577C14.0474 16.1654 14.1696 16.5308 14.391 16.85C14.6086 17.1692 14.9141 17.4077 15.2883 17.5577C15.4601 17.6269 15.6548 17.6769 15.8686 17.7115L15.8877 18.3538C15.8877 18.4192 15.9411 18.4692 16.0061 18.4692L17.1629 18.4346C17.2278 18.4346 17.2775 18.3808 17.2775 18.3154L17.2584 17.6769C17.4417 17.6346 17.6135 17.5692 17.7738 17.4923C18.1175 17.3192 18.3809 17.0846 18.5604 16.7885C18.736 16.4923 18.8238 16.1731 18.8238 15.8423C18.8123 15.5038 18.7169 15.2077 18.5374 14.9538C18.3618 14.7 18.0907 14.4961 17.7318 14.3423C17.4951 14.2423 17.0637 14.1308 16.449 14.0077C15.6968 13.8577 15.4639 13.7346 15.3952 13.6731C15.2806 13.5769 15.2233 13.4577 15.2195 13.3C15.2157 13.1154 15.2883 12.9615 15.4524 12.8231C15.6204 12.6808 15.9144 12.6 16.323 12.5885C16.7124 12.5769 17.0064 12.65 17.2011 12.8C17.3882 12.9461 17.5066 13.1769 17.5486 13.4885L17.5562 13.5346C17.5638 13.5923 17.6173 13.6346 17.6746 13.6346L18.4802 13.55C18.5413 13.5461 18.5871 13.4885 18.5833 13.4269L18.5794 13.3808C18.5565 13.0192 18.4458 12.6961 18.2511 12.4154C18.0525 12.1308 17.7776 11.9192 17.4264 11.7808C17.3195 11.7385 17.2088 11.7038 17.0904 11.6769L17.0713 11.0461C17.0713 10.9808 17.0178 10.9308 16.9529 10.9308ZM6.37685 13.9577H3.8951C3.42166 13.9577 3.03603 14.3461 3.03603 14.8231C3.03603 15.3 3.42166 15.6885 3.8951 15.6885H6.37685C6.8503 15.6885 7.23592 15.3 7.23592 14.8231C7.23592 14.3461 6.8503 13.9577 6.37685 13.9577ZM8.2859 10.1961H3.8951C3.42166 10.1961 3.03603 10.5846 3.03603 11.0615C3.03603 11.5385 3.42166 11.9269 3.8951 11.9269H8.2859C8.75934 11.9269 9.14496 11.5385 9.14496 11.0615C9.14496 10.5846 8.75934 10.1961 8.2859 10.1961ZM10.9586 6.43846H3.8951C3.42166 6.43846 3.03603 6.82692 3.03603 7.30384C3.03603 7.78076 3.42166 8.16922 3.8951 8.16922H10.9586C11.432 8.16922 11.8176 7.78076 11.8176 7.30384C11.8176 6.82692 11.432 6.43846 10.9586 6.43846ZM8.22862 1.52692C7.38865 1.52692 6.70139 2.21922 6.70139 3.06538C6.70139 3.91153 7.38865 4.60384 8.22862 4.60384C9.0686 4.60384 9.75586 3.91153 9.75586 3.06538C9.75586 2.21922 9.0686 1.52692 8.22862 1.52692Z" fill="#FFB80A"/>
</svg>
