<svg width="20" height="20" viewBox="0 0 20 20" fill="none" xmlns="http://www.w3.org/2000/svg">
<path d="M14.195 10.6569L17.407 12.9824L15.4064 15.6786L14.0411 17.5244L13.7057 17.9678L9.9807 19.6L10.5884 15.5254L12.1865 13.3773L14.195 10.6569ZM8.28788 0.399994C9.48351 0.399994 10.4937 1.18186 10.8804 2.26196H14.337C15.3472 2.26196 16.1759 3.10025 16.1759 4.12392V5.40151C15.5721 5.57078 15.0118 5.92947 14.5975 6.47355L13.8754 7.42468C13.832 7.4811 13.7885 7.54156 13.753 7.60201L13.6544 7.73098C13.5952 7.79143 13.54 7.85994 13.4965 7.93249L8.86794 14.1914C8.65091 14.4856 8.50885 14.8282 8.45361 15.195L7.84593 19.2655C7.83804 19.3138 7.83804 19.3622 7.83409 19.4106H2.23872C1.22855 19.4106 0.399902 18.5723 0.399902 17.5486V4.12392C0.399902 3.10025 1.22855 2.26196 2.23872 2.26196H5.69538C6.07814 1.18186 7.09225 0.399994 8.28788 0.399994ZM6.3662 14.6025H3.80132C3.31202 14.6025 2.91348 15.0096 2.91348 15.5093C2.91348 16.0091 3.31202 16.4161 3.80132 16.4161H6.3662C6.85549 16.4161 7.25404 16.0091 7.25404 15.5093C7.25404 15.0096 6.85549 14.6025 6.3662 14.6025ZM8.33918 10.665H3.80132C3.31202 10.665 2.91348 11.072 2.91348 11.5718C2.91348 12.0715 3.31202 12.4786 3.80132 12.4786H8.33918C8.82848 12.4786 9.22702 12.0715 9.22702 11.5718C9.22702 11.072 8.82848 10.665 8.33918 10.665ZM16.31 7.83576C16.5744 7.48513 17.0519 7.40453 17.3754 7.65843L19.3247 9.18186C19.6483 9.43173 19.6917 9.92342 19.4273 10.274L19.0327 10.7939L18.5987 11.3783L15.3946 9.06095L15.5958 8.79093L15.5879 8.7869L16.31 7.83576ZM11.1013 6.72745H3.80132C3.31202 6.72745 2.91348 7.1345 2.91348 7.63425C2.91348 8.134 3.31202 8.54105 3.80132 8.54105H11.1013C11.5906 8.54105 11.9892 8.134 11.9892 7.63425C11.9892 7.1345 11.5906 6.72745 11.1013 6.72745ZM8.27999 1.58085C7.41188 1.58085 6.7016 2.30629 6.7016 3.19294C6.7016 4.07959 7.41188 4.80503 8.27999 4.80503C9.1481 4.80503 9.85837 4.07959 9.85837 3.19294C9.85837 2.30629 9.1481 1.58085 8.27999 1.58085Z" fill="#FFB80A"/>
</svg>
