<svg width="21" height="21" viewBox="0 0 21 21" fill="none" xmlns="http://www.w3.org/2000/svg">
<path d="M10.3999 0.399994C15.9239 0.399994 20.3999 4.87599 20.3999 10.4C20.3999 15.924 15.9239 20.4 10.3999 20.4C4.8759 20.4 0.399902 15.924 0.399902 10.4C0.399902 4.87599 4.8759 0.399994 10.3999 0.399994ZM10.4999 5.19999H10.2999C9.8039 5.19999 9.3999 5.60399 9.3999 6.09999V14.3C9.3999 14.796 9.8039 15.2 10.2999 15.2H10.4999C10.9959 15.2 11.3999 14.796 11.3999 14.3V6.09999C11.3999 5.60399 10.9999 5.19999 10.4999 5.19999ZM14.4999 7.59999H14.2999C13.8039 7.59999 13.3999 8.00399 13.3999 8.49999V14.3C13.3999 14.796 13.8039 15.2 14.2999 15.2H14.4999C14.9959 15.2 15.3999 14.796 15.3999 14.3V8.49999C15.3999 8.00399 14.9999 7.59999 14.4999 7.59999ZM6.4999 9.19999H6.2999C5.8039 9.19999 5.3999 9.60399 5.3999 10.1V14.3C5.3999 14.796 5.8039 15.2 6.2999 15.2H6.4999C6.9959 15.2 7.3999 14.796 7.3999 14.3V10.1C7.3999 9.60399 6.9999 9.19999 6.4999 9.19999Z" fill="#FFB80A"/>
</svg>
