<svg width="26" height="25" viewBox="0 0 26 25" fill="none" xmlns="http://www.w3.org/2000/svg">
<path d="M0.430589 17.5482C0.20365 17.5699 0.00974923 17.7601 0.00974923 18.0128V18.9156C0.012999 19.4992 0.319557 20.0808 0.944588 20.359L9.84993 24.3291C11.8572 25.2236 14.145 25.2236 16.1522 24.3291L25.0576 20.359C25.6826 20.0808 25.9892 19.4992 25.9924 18.9156V18.0128C25.9924 17.6759 25.6452 17.4514 25.3387 17.5884L16.1522 21.6813C14.145 22.5758 11.855 22.5758 9.84776 21.6813L0.663487 17.5884C0.586576 17.5542 0.506416 17.5411 0.430589 17.5482ZM5.1167 13.4787C6.14145 13.4787 6.97229 13.9553 6.97229 14.5422C6.97229 15.1292 6.14253 15.6036 5.1167 15.6036C4.09195 15.6036 3.26164 15.1292 3.26164 14.5422C3.26164 13.9553 4.09195 13.4787 5.1167 13.4787ZM11.9168 8.54719C11.2105 8.64665 10.5129 8.83523 9.84776 9.13088L0.942421 13.1004C-0.31414 13.6613 -0.31414 15.4504 0.942421 16.0112L9.84776 19.9813C11.855 20.8759 14.145 20.8759 16.1522 19.9813L25.0576 16.0112C26.3141 15.4504 26.3141 13.6613 25.0576 13.1004L16.1522 9.13088C15.4871 8.83414 14.7906 8.64665 14.0832 8.54719V14.402C14.0832 14.852 13.598 15.2172 13 15.2172C12.402 15.2172 11.9168 14.852 11.9168 14.402V8.54719ZM13 0C11.2051 0 9.75027 1.45977 9.75027 3.26083C9.75027 5.0619 11.2051 6.52167 13 6.52167C14.7949 6.52167 16.2497 5.0619 16.2497 3.26083C16.2497 1.45977 14.7949 0 13 0Z" fill="#FFB80A"/>
</svg>
