<svg width="23" height="25" viewBox="0 0 23 25" fill="none" xmlns="http://www.w3.org/2000/svg">
<path d="M17.5802 14.9953C16.6208 17.9222 12.6396 17.9905 11.6615 15.845L11.5005 15.5177L11.3385 15.845C10.3604 17.9905 6.37924 17.9222 5.41982 14.9953C3.80216 10.0585 10.3911 8.47458 11.5005 6.25056C12.61 8.47458 19.1978 10.0585 17.5802 14.9953ZM11.5005 0C9.48532 4.23953 -2.47572 7.25832 0.461697 16.6678C2.20421 22.2458 9.43165 22.3747 11.207 18.2865C10.4524 21.331 8.18856 23.758 5.25553 24.6368L5.57862 25H17.4214L17.7445 24.6368C14.8125 23.758 12.5476 21.331 11.793 18.2865C13.5694 22.3747 20.7969 22.2458 22.5383 16.6678C25.4757 7.25832 13.5147 4.23953 11.5005 0Z" fill="#FFB80A"/>
</svg>
