<svg width="26" height="26" viewBox="0 0 26 26" fill="none" xmlns="http://www.w3.org/2000/svg">
<path fill-rule="evenodd" clip-rule="evenodd" d="M19.1804 16.8459C19.5982 17.2558 19.6399 17.4399 19.3422 17.953C18.1602 19.9924 17.073 22.0844 15.9119 24.1358C15.6216 24.6489 15.3348 25.1639 15.044 25.677C14.9308 25.877 14.7805 26.0224 14.5418 25.9936C14.1751 25.9951 13.9667 25.7857 13.8868 25.3555C13.5593 23.5835 13.1827 21.8219 12.7912 20.0639C12.7435 19.8505 12.8085 19.788 12.9882 19.7279C14.9983 19.0526 16.8457 18.0686 18.5443 16.8008C18.8678 16.5591 18.8896 16.5606 19.1804 16.8459ZM6.44892 15.241C6.52087 15.3407 6.3988 15.3914 6.34074 15.4479C5.01188 16.7301 4.17874 18.2783 3.8696 20.0989C3.76291 20.7261 3.66814 21.3568 3.65127 21.997C3.64432 22.2535 3.72818 22.3438 3.9882 22.3379C6.42411 22.2823 8.60348 21.5757 10.3913 19.8518C10.502 19.7451 10.563 19.5878 10.765 19.497C10.698 19.8459 10.563 20.1203 10.4142 20.3793C9.0719 22.7075 7.18728 24.3837 4.59506 25.2139C3.22948 25.6511 1.82619 25.8436 0.40206 25.9339C0.128646 25.9508 0.0437939 25.8764 0.0621538 25.5915C0.176283 23.8389 0.437787 22.116 1.14489 20.4944C2.18247 18.1146 3.90185 16.3902 6.24845 15.2886C6.31097 15.2594 6.38441 15.1517 6.44892 15.241ZM7.79559 16.0359C7.61497 16.2974 7.43484 16.5366 7.284 16.8001C6.90886 17.4536 6.88306 18.1642 6.9039 18.8867C6.90985 19.0847 7.04581 19.0867 7.19071 19.0966C8.2134 19.1661 9.14976 18.981 9.88862 18.1984C9.89954 18.1865 9.92484 18.1885 9.98687 18.1731C9.97695 18.5135 9.79384 18.7706 9.6291 19.0172C9.053 19.8786 8.19951 20.3078 7.20907 20.4989C6.70591 20.5961 6.19679 20.6398 5.68371 20.5971C5.56164 20.5867 5.42071 20.5892 5.41476 20.4011C5.36812 18.9095 5.57801 17.5077 6.82599 16.4875C7.10288 16.2612 7.415 16.0761 7.79559 16.0359ZM25.9893 0.319419L25.9804 0.425921L25.9863 0.643447C25.9362 1.86215 25.7214 3.05455 25.4643 4.24447C25.1606 5.64875 24.7632 7.01929 24.1697 8.33029C22.9634 10.9969 21.184 13.1788 18.7942 14.8897C16.7672 16.3407 14.5908 17.5013 12.3206 18.5056C11.7157 18.7731 11.7152 18.7791 11.2503 18.3166C10.0291 17.1028 8.80941 15.8871 7.59021 14.6714C7.22152 14.3042 7.225 14.2184 7.45028 13.746C8.07253 12.4424 8.65756 11.12 9.38948 9.87103C10.6687 7.6872 12.1003 5.61898 14.0961 4.0177C15.5867 2.82133 17.251 1.91921 19.0542 1.27711C20.6391 0.71242 22.2811 0.392363 23.9385 0.147729C24.5101 0.063373 25.0936 0.0618844 25.6697 0.00481982C25.9273 -0.0204871 26.0364 0.049479 25.9893 0.319419ZM9.36159 7.01463C9.4648 7.15109 9.38094 7.23644 9.31445 7.32625C8.91053 7.8706 8.49917 8.40899 8.16076 8.99998C7.41495 10.3045 6.7004 11.6235 6.25381 13.0674C6.20518 13.2237 6.12479 13.2615 5.96898 13.2247C4.18658 12.803 2.38731 12.4596 0.590522 12.1063C0.240691 12.0373 0.00399757 11.7922 1.38316e-05 11.5044C-0.00195699 11.1823 0.206949 11.0151 0.458033 10.8757C1.17109 10.4802 1.88018 10.0768 2.59671 9.68773C4.40095 8.70721 6.20617 7.72918 7.9841 6.70251C8.58502 6.35566 8.93088 6.44448 9.36159 7.01463ZM18.7158 3.55721C16.6997 3.74776 15.4334 5.57829 15.5445 7.30313C15.6641 9.16145 17.3195 10.7057 19.3252 10.5677C21.2093 10.4382 22.7436 8.67417 22.5823 6.87093C22.6428 5.1312 20.9121 3.3498 18.7158 3.55721ZM21.7394 7.06629C21.7677 8.38522 20.5743 9.75279 19.0876 9.69522C17.7414 9.7116 16.4264 8.62539 16.4314 6.96853C16.4349 5.6228 17.6625 4.40608 18.9884 4.36639C20.355 4.3257 21.7061 5.50966 21.7394 7.06629Z" fill="#FFB80A"/>
</svg>
