<svg width="27" height="23" viewBox="0 0 27 23" fill="none" xmlns="http://www.w3.org/2000/svg">
<path d="M22.299 12.3946C21.5251 12.3633 20.9175 11.7142 20.9394 10.9422C20.9619 10.1527 21.6254 9.53221 22.4171 9.56035C23.1792 9.58752 23.8056 10.2572 23.7795 11.0169C23.7523 11.8114 23.091 12.4267 22.299 12.3946ZM18.9766 16.7759C18.9766 16.7759 14.462 17.9923 10.501 13.8995C9.8282 13.2043 8.80735 12.0685 9.11193 11.1488C9.28895 10.6144 9.92958 9.52628 10.3139 9.09513C11.0614 8.25637 13.1721 5.29885 18.9766 5.53425C18.9766 5.53425 15.0484 11.3022 18.9766 16.7759ZM25.961 8.7708C24.5713 6.61743 22.749 4.91018 20.5575 3.59389C20.3731 3.4831 20.1862 3.34717 20.0563 3.17947C19.1915 2.06265 18.1642 1.11611 17.0079 0.323185C16.6951 0.108672 16.2503 0.0137165 15.8621 0.0021236C15.2793 -0.01531 14.6917 0.0784066 14.1082 0.143805C11.9834 0.381769 9.90543 0.812654 7.93989 1.69124C7.10109 2.06628 7.09016 2.14575 7.76684 2.78248C8.60424 3.57053 9.36009 4.42681 9.99808 5.4323C8.92416 6.55097 7.87942 7.66717 6.80136 8.75C6.28344 9.27018 5.86928 9.22575 5.39412 8.64664C5.10576 8.29522 4.87417 7.89743 4.60821 7.5269C3.59705 6.11779 2.13719 5.56177 0.49466 5.35699C0.134013 5.31204 -0.0535834 5.47318 0.0134153 5.83469C0.195193 6.81513 0.319053 7.81602 0.611555 8.76354C0.979167 9.95407 1.72532 10.8974 2.88713 11.4481C2.90582 11.457 2.9097 11.497 2.91331 11.5056C2.58317 11.7315 2.21864 11.9141 1.93778 12.1843C0.42581 13.639 0.0648104 15.5262 0.0259335 17.5176C0.0241704 17.6091 0.208153 17.7522 0.329279 17.7861C0.476059 17.8272 0.653429 17.8004 0.808232 17.7635C2.45719 17.3711 3.916 16.6846 4.80814 15.1299C4.91049 14.9516 5.03303 14.7841 5.15495 14.6181C5.79867 13.7421 6.21238 13.6734 7.02783 14.3722C7.89899 15.1188 8.7281 15.9147 9.5967 16.6644C11.2629 18.1026 12.9714 19.475 15.2844 19.8658C14.9664 20.8446 14.5459 21.7187 13.8386 22.4396C13.724 22.5564 13.6488 22.7123 13.5554 22.8502C13.727 22.9027 13.9015 23.0084 14.0697 22.9995C15.9905 22.8974 17.717 22.2734 19.1824 21.0003C19.837 20.4315 20.3499 19.7504 20.5828 18.898C20.6594 18.6175 20.8074 18.455 21.0569 18.3178C22.8817 17.3139 24.474 16.0238 25.7442 14.3603C27.3539 12.252 27.4051 11.0085 25.961 8.7708Z" fill="#FFB80A"/>
</svg>
