<svg width="25" height="25" viewBox="0 0 25 25" fill="none" xmlns="http://www.w3.org/2000/svg">
<path d="M12.5 0C19.4033 0 25 5.59783 25 12.5C25 19.4043 19.4033 25 12.5 25C5.59674 25 0 19.4043 0 12.5C0 5.59783 5.59674 0 12.5 0ZM12.5 5.10217C8.41413 5.10217 5.10109 8.41413 5.10109 12.5C5.10109 16.587 8.41413 19.8989 12.5 19.8989C16.5859 19.8989 19.8989 16.587 19.8989 12.5C19.8989 8.41413 16.5859 5.10217 12.5 5.10217ZM12.4657 7.36283C13.0733 7.36283 13.6287 7.46283 14.1287 7.66391C14.6298 7.865 15.032 8.16065 15.3363 8.5487C15.6407 8.93674 15.7928 9.40739 15.7928 9.95957C15.7928 10.4085 15.6961 10.7998 15.5048 11.1313C15.3124 11.4639 15.0559 11.74 14.733 11.9596C14.595 12.0541 14.4483 12.1357 14.2972 12.2085C14.5113 12.2954 14.7178 12.3998 14.9157 12.5215C15.2852 12.7509 15.582 13.0509 15.807 13.4204C16.0309 13.79 16.1439 14.2324 16.1439 14.7465C16.1439 15.1954 16.0428 15.5987 15.8417 15.9541C15.6407 16.3096 15.3689 16.6139 15.0276 16.8661C14.6852 17.1193 14.295 17.3107 13.8548 17.4422C13.4157 17.5726 12.9515 17.6389 12.4657 17.6389C11.9885 17.6389 11.5298 17.5726 11.0896 17.4422C10.6493 17.3107 10.257 17.1193 9.91022 16.8661C9.56348 16.6139 9.29283 16.3096 9.09609 15.9541C8.89935 15.5987 8.80152 15.1954 8.80152 14.7465C8.80152 14.2324 8.91348 13.79 9.13848 13.4204C9.36239 13.0509 9.65804 12.7509 10.0222 12.5215C10.2178 12.3998 10.4222 12.2954 10.6352 12.2074C10.4852 12.1357 10.3417 12.0541 10.2048 11.9596C9.88739 11.74 9.63196 11.4639 9.43957 11.1313C9.24826 10.7998 9.15261 10.4085 9.15261 9.95957C9.15261 9.40739 9.30152 8.93674 9.60152 8.5487C9.90152 8.16065 10.3037 7.865 10.8091 7.66391C11.3146 7.46283 11.8667 7.36283 12.4657 7.36283ZM12.4657 13.1041C12.232 13.1041 12.0135 13.1607 11.8124 13.2726C11.6113 13.3846 11.4526 13.5389 11.3352 13.7357C11.2178 13.9324 11.1602 14.1476 11.1602 14.3813C11.1602 14.6715 11.2178 14.915 11.3352 15.1117C11.4526 15.3085 11.6113 15.4585 11.8124 15.5607C12.0135 15.6639 12.232 15.715 12.4657 15.715C12.7091 15.715 12.9287 15.6639 13.1254 15.5607C13.3222 15.4585 13.4809 15.3085 13.6026 15.1117C13.7243 14.915 13.7852 14.6715 13.7852 14.3813C13.7852 14.1476 13.7243 13.9324 13.6026 13.7357C13.4809 13.5389 13.3222 13.3846 13.1254 13.2726C12.9287 13.1607 12.7091 13.1041 12.4657 13.1041ZM12.4657 9.06065C12.2591 9.06065 12.0722 9.10739 11.9037 9.20087C11.7352 9.29543 11.6048 9.42804 11.5113 9.60196C11.4167 9.77478 11.37 9.96935 11.37 10.1846C11.37 10.4085 11.42 10.6052 11.5178 10.7737C11.6157 10.9422 11.7472 11.0737 11.9113 11.1672C12.0743 11.2607 12.2591 11.3074 12.4657 11.3074C12.6809 11.3074 12.87 11.2607 13.0341 11.1672C13.1972 11.0737 13.3265 10.9422 13.42 10.7737C13.5135 10.6052 13.5602 10.4085 13.5602 10.1846C13.5602 9.96935 13.5135 9.77478 13.42 9.60196C13.3265 9.42804 13.2004 9.29543 13.0407 9.20087C12.882 9.10739 12.6896 9.06065 12.4657 9.06065Z" fill="#FFB80A"/>
</svg>
