<svg width="27" height="27" viewBox="0 0 27 27" fill="none" xmlns="http://www.w3.org/2000/svg">
<path fill-rule="evenodd" clip-rule="evenodd" d="M14.4967 1.0876L16.6937 6.79341L19.739 6.06169C20.4271 5.89621 21.0503 6.47878 20.958 7.15878L20.9387 7.26143L20.2055 10.3061L25.9129 12.5038C26.7258 12.8168 26.7611 13.9306 26.0189 14.313L25.9128 14.3604L20.2064 16.5575L20.9387 19.6027C21.1042 20.2909 20.5217 20.9141 19.8417 20.8218L19.739 20.8025L16.6937 20.0702L14.4967 25.7765C14.1839 26.5895 13.0699 26.6249 12.6875 25.8826L12.64 25.7766L10.4423 20.0693L7.39767 20.8025C6.70953 20.968 6.08632 20.3854 6.17862 19.7054L6.19791 19.6028L6.92962 16.5575L1.22392 14.3605C0.4109 14.0477 0.375552 12.934 1.11778 12.5513L1.22382 12.5038L6.93052 10.3061L6.19791 7.26145C6.03243 6.57331 6.615 5.9501 7.295 6.0424L7.39765 6.06169L10.4423 6.79431L12.64 1.08771C12.967 0.237709 14.1697 0.237709 14.4967 1.0876ZM10.9616 7.8437L10.6162 7.76119L7.18724 6.93675C7.11839 6.92019 7.05641 6.98217 7.07297 7.05103L7.89742 10.4799L7.97993 10.8263L13.567 13.4317L7.97993 16.0373L7.89742 16.3843L7.07297 19.8132C7.05641 19.882 7.11839 19.944 7.18728 19.9274L10.6162 19.1032L10.9616 19.0199L13.5679 13.4327L16.1726 19.0199L16.5205 19.1032L19.9494 19.9274C20.0183 19.944 20.0802 19.882 20.0637 19.8132L19.2392 16.3843L19.1552 16.0373L13.5679 13.4327L19.1552 10.8254L19.2392 10.4799L20.0637 7.05102C20.0802 6.98217 20.0183 6.92019 19.9494 6.93675L16.5205 7.76119L16.1735 7.8437L13.5682 13.4315L10.9616 7.8437Z" fill="#FFB80A"/>
</svg>
