<svg width="22" height="21" viewBox="0 0 22 21" fill="none" xmlns="http://www.w3.org/2000/svg">
<path d="M19.5627 0.378379L21.4762 2.05481C15.7087 9.08903 15.0451 16.9241 15.0451 20.5H4.53676C4.53676 19.1498 4.26831 17.7546 6.02936 14.3117C7.11606 12.187 8.3284 10.8325 9.56436 9.79872C9.83282 9.68776 15.2094 7.40381 17.6233 1.15617C18.4609 0.956233 19.1718 0.665109 19.5627 0.378379ZM2.60293 1.8474C5.9339 -0.912235 11.2933 -0.0223836 13.2842 0.956453C14.0219 1.32008 14.9325 1.43653 15.8398 1.40358C15.2288 3.14593 13.5397 5.51776 9.22085 7.99067C7.70355 7.72262 6.17336 7.23485 5.28317 7.45676C3.67459 7.85774 2.64158 9.54956 2.64158 10.4394H0V0.912509H2.60293V1.8474Z" fill="#FFB80A"/>
</svg>
