<svg width="25" height="25" viewBox="0 0 25 25" fill="none" xmlns="http://www.w3.org/2000/svg">
<path d="M12.5 0C19.4033 0 25 5.59674 25 12.5C25 19.4033 19.4033 25 12.5 25C5.59565 25 0 19.4033 0 12.5C0 5.59674 5.59565 0 12.5 0ZM10.7239 2.28587C10.1424 2.38696 9.56956 2.53804 9.00761 2.73804C7.70109 3.20543 6.51739 3.92065 5.48587 4.86848C5.11413 5.21087 4.77065 5.57717 4.45543 5.96304C4.45543 5.96304 4.18587 6.24783 3.87065 6.81848C2.78478 8.45435 2.15217 10.4163 2.15217 12.5272C2.15217 12.8478 2.16848 13.1641 2.19674 13.4783C2.19457 13.5054 2.19022 13.5304 2.18696 13.5576C2.27065 14.387 2.45543 15.2022 2.73804 15.9935C2.89348 16.4283 3.07609 16.8489 3.28587 17.2554C3.29022 17.2576 3.29457 17.2587 3.29891 17.2609C5.01739 20.5946 8.4913 22.875 12.5 22.875C16.4054 22.875 19.8054 20.7098 21.5674 17.5141L21.4391 17.688C22.3152 16.3217 22.5065 15.1728 22.5065 15.1728C22.7 14.4457 22.8228 13.7 22.8554 12.938C22.8707 12.5663 22.8674 12.1967 22.8435 11.8293C22.7087 11.9641 22.2957 12.4033 22 12.6978L18.4402 10.9185L17.1641 7.25L18.6011 5.17174C19.4891 5.5413 20.7207 6.44783 21.2685 6.97174C20.937 6.44674 20.5576 5.95217 20.1304 5.48804C19.1848 4.4587 18.063 3.64348 16.8011 3.06739C16.1261 2.75978 15.4261 2.52826 14.7087 2.37174C15.5141 2.66739 16.1837 3.27283 16.8609 3.80326C16.8978 3.8337 17.2174 4.1337 17.4457 4.35978L15.9837 6.47391L12.6565 6.4L9.74891 3.49239C10.0815 3.0837 10.4424 2.60217 10.7239 2.28587ZM11.0884 11.7432L13.8634 13.8008L13.709 19.6008C12.4612 20.3355 11.0014 20.5355 10.7079 20.5671C7.11337 19.2725 5.57641 17.0671 5.55793 17.0399L5.52315 17.0638L5.66011 13.8497L11.0884 11.7432ZM17.7321 12.144L21.419 13.9875C21.419 13.9875 21.4375 17.3016 17.8462 19.7429C17.4147 19.9625 17.0158 20.1158 16.6821 20.2179C16.0864 20.0821 15.5418 19.8505 15.1201 19.6386L15.2701 14.019L17.7321 12.144ZM8.61011 4.35217L11.559 7.30109L10.5623 10.4315L5.17859 12.5207L3.96989 11.0261C4.13511 6.33478 7.75902 4.60326 8.61011 4.35217Z" fill="#FFB80A"/>
</svg>
