<svg width="29" height="21" viewBox="0 0 29 21" fill="none" xmlns="http://www.w3.org/2000/svg">
<path d="M19.0976 0L19.507 0.0496197C24.9188 0.717331 29 5.20038 29 10.4784C29 16.2796 24.1202 21 18.1205 21H10.8806C4.88092 21 0 16.2796 0 10.4784C0 5.20038 4.08119 0.717331 9.49415 0.0496197L9.9035 0L10.3597 1.08193C10.3898 1.13479 10.6062 1.26639 10.9587 1.26639H18.0425C18.3938 1.26639 18.6113 1.13479 18.6425 1.07977L19.0976 0ZM18.1205 2.97611H10.8806C6.60754 2.97611 3.12977 6.33517 3.12419 10.4666C3.12977 14.598 6.60754 17.957 10.8806 17.957H18.1205C22.3936 17.957 25.8702 14.598 25.8769 10.4666C25.8702 6.33517 22.3936 2.97611 18.1205 2.97611ZM18.1202 4.45317C21.5422 4.45317 24.3262 7.14559 24.3262 10.455C24.3262 13.7644 21.5422 16.4569 18.1202 16.4569H10.8802C7.45824 16.4569 4.67424 13.7644 4.67424 10.455C4.67424 7.14559 7.45824 4.45317 10.8802 4.45317H18.1202ZM18.1202 6.45415H10.8802C8.59928 6.45415 6.74328 8.24909 6.74328 10.455C6.74328 12.6609 8.59928 14.4559 10.8802 14.4559H18.1202C20.4012 14.4559 22.2572 12.6609 22.2572 10.455C22.2572 8.24909 20.4012 6.45415 18.1202 6.45415ZM14.5002 8.76417C15.0713 8.76417 15.5342 9.21182 15.5342 9.76412V10.7651C15.5342 11.3174 15.0713 11.7651 14.5002 11.7651C13.9291 11.7651 13.4663 11.3174 13.4663 10.7651V9.76412C13.4663 9.21182 13.9291 8.76417 14.5002 8.76417ZM10.8802 8.76417C11.4513 8.76417 11.9142 9.21182 11.9142 9.76412V10.7651C11.9142 11.3174 11.4513 11.7651 10.8802 11.7651C10.3092 11.7651 9.84628 11.3174 9.84628 10.7651V9.76412C9.84628 9.21182 10.3092 8.76417 10.8802 8.76417ZM18.1202 8.76417C18.6913 8.76417 19.1542 9.21182 19.1542 9.76412V10.7651C19.1542 11.3174 18.6913 11.7651 18.1202 11.7651C17.5491 11.7651 17.0862 11.3174 17.0862 10.7651V9.76412C17.0862 9.21182 17.5491 8.76417 18.1202 8.76417Z" fill="#FFB80A"/>
</svg>
