<svg width="22" height="20" viewBox="0 0 22 20" fill="none" xmlns="http://www.w3.org/2000/svg">
<path d="M5.52879 7.30247H5.66882M10.9999 7.30247H11.1399M16.3294 7.30247H16.4694M10.3999 12.7025H3.53324C2.35503 12.7025 1.3999 11.7473 1.3999 10.5691V4.0358C1.3999 2.85759 2.35503 1.90247 3.53324 1.90247H18.4666C19.6448 1.90247 20.5999 2.85759 20.5999 4.0358V7.30247M14.4111 11.5975L15.8011 10.9025C16.8146 10.3958 18.0076 10.3958 19.0211 10.9025L20.4111 11.5975C20.4111 11.5975 20.4111 13.7875 20.4111 14.9425C20.4111 16.0975 19.3434 16.8772 17.4111 18.0975C15.4788 16.8772 14.4111 15.8475 14.4111 14.9425V11.5975Z" stroke="#FFB70A" stroke-width="2" stroke-linecap="round" stroke-linejoin="round"/>
</svg>
