<svg width="22" height="22" viewBox="0 0 22 22" fill="none" xmlns="http://www.w3.org/2000/svg">
<path d="M5.12654 8.91311L16.719 8.91304C18.7769 8.91304 20.4451 7.23118 20.4451 5.15652C20.4451 3.08185 18.7769 1.39999 16.719 1.39999L5.12654 1.40007M5.12654 8.91311C3.06864 8.91311 1.40039 7.23126 1.40039 5.15659C1.40039 3.08192 3.06864 1.40007 5.12654 1.40007M5.12654 8.91311C7.18443 8.91311 8.85268 7.23126 8.85268 5.15659C8.85268 3.08192 7.18443 1.40007 5.12654 1.40007M16.8742 13.087H5.12654C3.06864 13.087 1.40039 14.7688 1.40039 16.8435C1.40039 18.9181 3.06864 20.6 5.12654 20.6H16.8742M16.8742 13.087C18.9321 13.087 20.6004 14.7688 20.6004 16.8435C20.6004 18.9181 18.9321 20.6 16.8742 20.6M16.8742 13.087C14.8164 13.087 13.1481 14.7688 13.1481 16.8435C13.1481 18.9181 14.8164 20.6 16.8742 20.6" stroke="#FFB70A" stroke-width="2"/>
</svg>
