<svg width="30" height="30" viewBox="0 0 30 30" fill="none" xmlns="http://www.w3.org/2000/svg">
<path d="M15 2C22.1797 2 28 7.83879 28 15.0413C28 21.7293 22.9815 27.2415 16.5161 27.9948L16.4711 28L16.4704 18.6869H20.2599L20.8686 15.0269H16.4969V12.3558C16.4969 11.35 16.8579 10.7414 18.2579 10.7414H20.8686V7.36032C19.8828 7.26183 19.0728 7.21386 18.0818 7.21663C13.8642 7.21663 12.0327 9.47349 12.0327 11.9248V15.0438H8.93333V18.7122H12.0327L12.0331 27.7414C12.1527 27.7694 12.2728 27.7957 12.3936 27.8204C6.46279 26.6094 2 21.3482 2 15.0413C2 7.83879 7.8203 2 15 2Z" fill="white" fill-opacity="0.29652"/>
</svg>
