<svg width="26" height="26" viewBox="0 0 26 26" fill="none" xmlns="http://www.w3.org/2000/svg">
<path d="M19 0C22.866 0 26 3.13401 26 7V19C26 22.866 22.866 26 19 26H7C3.13401 26 0 22.866 0 19V7C0 3.13401 3.13401 0 7 0H19ZM13.5342 4.13894H12.4599C11.2076 4.14004 10.6338 4.14555 10.1449 4.16023L9.95245 4.16661L9.76065 4.17403C9.63111 4.17934 9.49637 4.18539 9.34516 4.19227C8.40195 4.23547 7.75813 4.38484 7.19479 4.604C6.61207 4.83035 6.11777 5.13315 5.6253 5.62593C5.13247 6.11853 4.82976 6.61297 4.60273 7.19566C4.38308 7.75934 4.23357 8.40352 4.19111 9.34661C4.18435 9.49786 4.17839 9.63265 4.17314 9.76223L4.16579 9.9541C4.14644 10.4946 4.13928 11.0427 4.13799 12.4624L4.13799 13.5396C4.13924 14.9592 4.14624 15.5067 4.16572 16.047L4.17312 16.2388C4.17842 16.3683 4.18445 16.5031 4.1913 16.6543C4.23467 17.5978 4.384 18.2418 4.60291 18.8053C4.82939 19.3881 5.13211 19.8826 5.62475 20.3752C6.11703 20.8681 6.61133 21.1717 7.19369 21.398C7.7574 21.6172 8.4014 21.7666 9.34442 21.8098C10.2139 21.8493 10.5389 21.8614 12.4588 21.8631H13.5358C15.4559 21.8614 15.7803 21.8493 16.6498 21.8098C17.593 21.7666 18.2375 21.6172 18.8012 21.398C19.3838 21.1717 19.8773 20.8681 20.3696 20.3752C20.8624 19.8826 21.1652 19.3881 21.3922 18.8054C21.61 18.2418 21.7595 17.5976 21.8038 16.6545C21.8429 15.7848 21.8554 15.4602 21.8571 13.5396V12.4624C21.8558 11.0428 21.8486 10.4947 21.8292 9.95426L21.8219 9.7624C21.8166 9.63283 21.8106 9.49805 21.8038 9.3468C21.7595 8.40333 21.61 7.75934 21.3922 7.19585C21.1652 6.61297 20.8624 6.11853 20.3696 5.62593C19.8768 5.13297 19.3839 4.83017 18.8007 4.604C18.2359 4.38484 17.5917 4.23547 16.6485 4.19227C15.779 4.15269 15.4548 4.14062 13.5342 4.13894ZM12.2036 5.73357L13.5275 5.73596C15.413 5.73736 15.7191 5.74768 16.5785 5.78674C17.4423 5.82625 17.9112 5.97064 18.2235 6.09194C18.6369 6.25257 18.9317 6.44458 19.2416 6.75476C19.5517 7.06494 19.7437 7.36035 19.9046 7.77393C20.0259 8.08595 20.1704 8.55492 20.2098 9.41899C20.2471 10.2411 20.2588 10.5571 20.261 12.2329V13.7651C20.2588 15.4409 20.2471 15.7569 20.2098 16.579C20.1703 17.4431 20.0259 17.912 19.9046 18.224C19.7441 18.6376 19.5517 18.9321 19.2416 19.2421C18.9315 19.5523 18.6371 19.7443 18.2235 19.9049C17.9115 20.0268 17.4423 20.1708 16.5785 20.2103C15.794 20.246 15.4705 20.2582 13.9849 20.2612H12.0117C11.0921 20.2593 10.6178 20.2539 10.2038 20.2416L10.0156 20.2355C9.82892 20.2288 9.64241 20.2205 9.41825 20.2103C8.55442 20.1704 8.08558 20.026 7.77309 19.9047C7.35962 19.7441 7.0643 19.5521 6.7542 19.2419C6.4441 18.9317 6.25214 18.6371 6.09119 18.2233C5.96992 17.9113 5.82539 17.4423 5.78607 16.5782C5.75041 15.7935 5.73872 15.4699 5.73589 13.9838V12.0099C5.73872 10.5241 5.75041 10.2015 5.78607 9.41677C5.82557 8.5527 5.96992 8.08374 6.09119 7.77134C6.25177 7.35777 6.4441 7.06236 6.7542 6.75218C7.0643 6.442 7.35962 6.24998 7.77309 6.08898C8.0854 5.96713 8.55442 5.82312 9.41825 5.78342C10.2356 5.74649 10.5523 5.73542 12.2036 5.73357ZM12.9982 8.44986C10.4857 8.44986 8.44847 10.4876 8.44847 13.001C8.44847 15.5144 10.4857 17.5512 12.9984 17.5512C15.5111 17.5512 17.5476 15.5144 17.5476 13.001C17.5476 10.4876 15.5109 8.44986 12.9982 8.44986ZM12.9984 10.0469C14.6293 10.0469 15.9517 11.3694 15.9517 13.001C15.9517 14.6324 14.6293 15.9551 12.9984 15.9551C11.3672 15.9551 10.0451 14.6324 10.0451 13.001C10.0451 11.3694 11.3672 10.0469 12.9984 10.0469ZM17.7277 7.20693C17.1407 7.20729 16.6645 7.68309 16.6645 8.2704C16.6645 8.85753 17.1407 9.33387 17.7277 9.33387C18.3147 9.33387 18.7909 8.85753 18.7909 8.2704C18.7909 7.68327 18.3147 7.20693 17.7277 7.20693Z" fill="white" fill-opacity="0.29652"/>
</svg>
