<svg width="26" height="26" viewBox="0 0 26 26" fill="none" xmlns="http://www.w3.org/2000/svg">
<path d="M13 0C5.81682 0 0 5.82119 0 13.0098C0 18.5184 3.41592 23.2261 8.25676 25.121C8.13964 24.0856 8.04204 22.5229 8.2958 21.3899C8.53003 20.3742 9.81832 14.9241 9.81832 14.9241C9.81832 14.9241 9.42793 14.1427 9.42793 12.9902C9.42793 11.1736 10.482 9.8257 11.7703 9.8257C12.8829 9.8257 13.4099 10.6657 13.4099 11.6619C13.4099 12.7754 12.7072 14.4553 12.3363 15.9985C12.024 17.2878 12.9805 18.3426 14.2688 18.3426C16.5721 18.3426 18.3483 15.9008 18.3483 12.3847C18.3483 9.27874 16.1036 7.09091 12.9219 7.09091C9.23273 7.09091 7.04655 9.86476 7.04655 12.7363C7.04655 13.8497 7.47598 15.0609 8.02252 15.7055C8.12012 15.8422 8.13964 15.9399 8.12012 16.0766C8.02252 16.4869 7.80781 17.3659 7.76877 17.5417C7.71021 17.7761 7.57357 17.8347 7.33934 17.7175C5.71922 16.9557 4.7042 14.592 4.7042 12.6777C4.7042 8.57551 7.69069 4.80541 13.2928 4.80541C17.8018 4.80541 21.2958 8.02855 21.2958 12.3065C21.2958 16.7799 18.4655 20.3937 14.5616 20.3937C13.2538 20.3937 12.0045 19.71 11.5751 18.9091C11.5751 18.9091 10.9309 21.3899 10.7748 21.9955C10.482 23.1285 9.68168 24.5349 9.15465 25.414C10.3649 25.7851 11.6532 26 13 26C20.1832 26 26 20.1788 26 12.9902C26 5.82119 20.1832 0 13 0Z" fill="white" fill-opacity="0.29652"/>
</svg>
