<svg width="26" height="26" viewBox="0 0 26 26" fill="none" xmlns="http://www.w3.org/2000/svg">
<path d="M13 0C20.1797 0 26 5.82032 26 13L25.9965 13.3069C25.8334 20.3448 20.0771 26 13 26L12.6931 25.9965C5.65521 25.8334 0 20.0771 0 13L0.00355053 12.6931C0.166572 5.65521 5.92288 0 13 0ZM19.1994 8.45374C19.3122 7.17627 17.9595 7.70234 17.9595 7.70234C17.9595 7.70234 17.0026 8.09492 16.0211 8.50152L15.6537 8.65391C15.0456 8.90653 14.4733 9.14614 14.1647 9.28032L5.41041 12.8873C4.03496 13.424 4.60647 13.9308 4.74473 14.0332L4.77167 14.052C4.77167 14.052 5.7218 14.3777 6.69902 14.6832L7.04354 14.7896L7.21383 14.8411C8.34104 15.1792 8.94218 14.8035 8.94218 14.8035L14.2399 11.2341C16.1185 9.95665 15.6676 11.0087 15.2167 11.4596C14.2399 12.4364 12.6243 13.9769 11.2717 15.2168C10.6705 15.7427 10.971 16.1936 11.2341 16.4191C12.211 17.2456 14.8786 18.9364 15.0289 19.0492C15.2167 19.1994 16.2688 19.8758 16.9075 19.7254C17.5462 19.5751 17.6214 18.711 17.6214 18.711L18.5607 12.8121C18.8613 10.8208 19.1618 8.9798 19.1994 8.45374Z" fill="white" fill-opacity="0.29652"/>
</svg>
