<svg width="25" height="18" viewBox="0 0 25 18" fill="none" xmlns="http://www.w3.org/2000/svg">
<path d="M12.6429 0C17.1375 0.00996033 21.467 0.233069 22.237 0.539313C23.3139 0.836065 24.154 1.70489 24.4453 2.81441C25.207 5.97975 25.1573 11.9642 24.4613 15.179C24.1732 16.2886 23.3299 17.1541 22.253 17.4541C19.2126 18.229 5.59496 18.1334 2.73061 17.4541C1.65368 17.1574 0.813576 16.2886 0.522341 15.179C-0.196147 12.1621 -0.146541 5.78192 0.506339 2.83089C0.794374 1.72137 1.63768 0.855848 2.71461 0.555799C4.48463 0.175288 8.14103 0.0139465 11.8246 0.000566483L12.6429 0ZM10.0755 5.13896V12.8545L16.6043 8.99672L10.0755 5.13896Z" fill="white" fill-opacity="0.29652"/>
</svg>
