<svg width="36" height="36" viewBox="0 0 36 36" fill="none" xmlns="http://www.w3.org/2000/svg">
<mask id="mask0_1242_967" style="mask-type:luminance" maskUnits="userSpaceOnUse" x="0" y="0" width="36" height="36">
<path d="M0 0H35.7143V35.7143H0V0Z" fill="white"/>
</mask>
<g mask="url(#mask0_1242_967)">
<path fill-rule="evenodd" clip-rule="evenodd" d="M22.5718 0.651717V3.91437C17.1992 2.35481 12.315 3.22297 8.09643 6.93176C4.94312 9.70397 3.3151 13.2824 3.20292 17.4881C2.97631 25.9882 10.0815 33.1371 18.9616 32.4728C23.6857 32.1194 27.4328 29.8947 30.0659 25.9513C32.7036 22.0012 33.1387 17.6976 31.8006 13.1964C31.8162 13.169 31.8203 13.1578 31.8278 13.1497C31.8356 13.1413 31.8466 13.1301 31.8564 13.13C32.8186 13.1212 33.7809 13.1129 34.7432 13.1064C34.8356 13.1057 34.928 13.1164 35.0615 13.1243C35.7703 15.664 35.9029 18.2319 35.4546 20.8206C34.7237 25.0408 32.7322 28.5758 29.4927 31.3688C22.7119 37.2149 12.9945 37.0439 6.45508 31.5692C-0.271271 25.938 -1.84662 16.6109 2.22745 9.26566C6.615 1.35539 15.4198 -1.39567 22.5718 0.651717Z" fill="white" fill-opacity="0.29652"/>
</g>
<path fill-rule="evenodd" clip-rule="evenodd" d="M23.8908 11.6578C24.7496 11.8948 25.5091 12.3127 26.0158 13.1029C26.8368 14.3836 26.6777 16.2025 25.254 17.248C25.1898 17.2951 25.1212 17.3358 25.0288 17.3966C25.197 17.4943 25.3394 17.5703 25.4754 17.6569C26.5809 18.361 27.1847 19.3687 27.1406 20.7232C27.1033 21.8679 26.5704 22.7431 25.6475 23.3731C25.0396 23.7881 24.3612 24.0222 23.6537 24.1476C22.4516 24.3606 21.2495 24.3348 20.0635 24.0161C19.4456 23.85 18.8748 23.5783 18.3616 23.1764C16.9139 22.0429 16.7353 19.9048 17.9366 18.4825C18.329 18.0181 18.8085 17.6785 19.3841 17.4152C19.1906 17.2576 19.0076 17.1173 18.8338 16.9656C17.2133 15.55 17.5012 13.1487 19.2729 12.1141C19.8844 11.757 20.5456 11.5779 21.2408 11.4891C22.1372 11.3745 23.0217 11.4178 23.8908 11.6578ZM21.2308 18.8199C20.5299 19.0071 20.1235 19.5416 20.1032 20.2558C20.082 21.0023 20.4523 21.5624 21.1613 21.7783C21.4117 21.8546 21.6762 21.8817 21.9387 21.9155C22.1161 21.9382 22.2955 21.9404 22.4732 21.9203C22.7586 21.888 23.0356 21.8314 23.3059 21.725C24.3574 21.3111 24.3724 19.9483 23.9012 19.3479C23.677 19.0622 23.3723 18.9062 23.0398 18.8171C22.439 18.656 21.8299 18.6598 21.2308 18.8199ZM21.5841 13.6261C20.8124 13.7817 20.4179 14.2634 20.4377 15.0641C20.452 15.6393 20.7112 16.0371 21.2387 16.2152C21.2705 16.2259 21.3025 16.2359 21.3347 16.2452C21.8347 16.3896 22.364 16.3869 22.8696 16.265C22.9247 16.2517 22.9794 16.2372 23.0337 16.2211C23.3618 16.1239 23.6191 15.9109 23.7561 15.5773C24.0512 14.8593 23.8306 13.868 22.8064 13.6445C22.4021 13.5563 21.9965 13.543 21.5841 13.6261ZM30.589 1.43042C30.6149 2.6546 30.5857 3.84328 30.6066 5.06331H34.2255C34.3088 5.47016 34.3037 7.4073 34.2224 7.7353H30.6096C30.58 8.96658 30.6154 10.1676 30.5907 11.4119C29.7041 11.4417 28.8433 11.4209 27.9617 11.4269C27.8911 10.9949 27.9327 10.5949 27.9255 10.1976C27.9183 9.79516 27.924 9.39246 27.924 8.98984V7.75592H24.3671C24.2682 7.45669 24.2562 5.47311 24.3489 5.0794H27.9199V1.43208C28.8252 1.42634 29.6861 1.42876 30.589 1.43042ZM10.9597 24.2078V14.06H8.64319C8.55027 13.7259 8.54802 11.7567 8.6339 11.4285H14.2213C14.2965 11.7135 14.3101 23.863 14.2394 24.2308C13.9115 24.3105 11.2973 24.3037 10.9597 24.2078Z" fill="white" fill-opacity="0.29652"/>
</svg>
