<svg width="32" height="36" viewBox="0 0 32 36" fill="none" xmlns="http://www.w3.org/2000/svg">
<g clip-path="url(#clip0_1242_986)">
<path d="M4.92523 33.1216C4.85722 34.6926 3.82994 35.7143 2.45569 35.7143C1.73481 35.7143 1.11557 35.4295 0.625914 34.8665C0.217626 34.4008 0 33.796 0 33.1147C0 32.4264 0.258431 31.7939 0.75501 31.2935C1.22439 30.8134 1.80281 30.5771 2.5101 30.5771C3.49658 30.5771 4.25851 31.0711 4.63267 31.9258H3.76885C3.44909 31.5091 3 31.2935 2.45569 31.2935C1.99992 31.2935 1.57827 31.4737 1.25851 31.8075C0.91823 32.1618 0.728046 32.6488 0.728046 33.1216C0.728046 33.6429 0.904628 34.1155 1.2177 34.4493C1.55106 34.8036 2.00684 35.0055 2.45569 35.0055C3.18374 35.0055 3.75501 34.609 4.12249 33.8168H1.93191V33.1216H4.92523ZM7.16804 31.6062L6.47388 33.4828H7.84836L7.16804 31.6062ZM5.67806 35.6171H4.93642L6.82776 30.6747H7.50808L9.39919 35.6171H8.63058L8.09987 34.1784H6.22237L5.67806 35.6171ZM9.66301 35.6171V30.6745H10.7037L12.1051 34.4979L13.5065 30.6745H14.5338V35.6171H13.874L13.9215 31.328L12.3502 35.6171H11.8536L10.2889 31.328L10.3364 35.6171H9.66301ZM17.627 30.5773C18.7562 30.5773 19.7219 31.3352 20.035 32.5514H18.7562C18.4977 32.0647 18.1097 31.8077 17.6337 31.8077C16.9123 31.8077 16.348 32.3773 16.348 33.1008C16.348 33.8862 16.9467 34.4909 17.6134 34.4909C18.0689 34.4909 18.4705 34.2408 18.729 33.7818H20.0147C19.6949 34.9845 18.7764 35.7143 17.6134 35.7143C16.8987 35.7143 16.2933 35.4434 15.8173 34.9289C15.3615 34.4356 15.13 33.8235 15.13 33.094C15.13 32.4127 15.3818 31.787 15.8647 31.3074C16.341 30.8272 16.94 30.5773 17.627 30.5773ZM22.7405 30.6745L24.5977 35.6171H23.2914L23.0533 34.9012H21.455L21.2099 35.6171H19.9173L21.7745 30.6745H22.7405ZM22.2572 32.2943L21.7745 33.879H22.7338L22.2572 32.2943ZM26.106 32.9546C26.6911 32.9546 26.9765 32.8015 26.9765 32.3568C26.9765 31.9464 26.7252 31.7801 26.2012 31.7801H25.8745V32.9546H26.106ZM24.691 35.6171V30.6745H26.2964C26.8066 30.6745 27.1944 30.7094 27.5213 30.9456C27.9499 31.2514 28.1742 31.7172 28.1742 32.329C28.1742 33.1285 27.7659 33.7262 27.0789 33.9207L28.2625 35.6171H26.7997L25.8745 34.0253V35.6171H24.691ZM28.7987 35.6171V30.6745H31.4245V31.7662H29.9823V32.5652H31.4245V33.6635H29.9823V34.5257H31.4245V35.6171H28.7987ZM30.5674 17.0994C30.4376 17.0246 30.2944 16.9739 30.141 16.9522C30.1047 16.9461 30.0689 16.9446 30.0324 16.9409C30.0129 16.94 29.9942 16.9351 29.9744 16.9351H29.9196C29.8709 16.9339 29.8222 16.9314 29.774 16.9351H20.3158C19.6465 16.9351 19.1039 17.4893 19.1039 18.1731C19.1039 18.857 19.6465 19.4115 20.3158 19.4115H23.9904C24.1117 19.4125 24.2097 19.5132 24.2097 19.6373C24.2097 19.709 24.1727 19.768 24.1214 19.8092C22.1067 20.9087 19.5153 21.5754 16.6799 21.5754C15.9898 21.5754 15.3152 21.5342 14.6585 21.4588V24.2703C15.2307 24.313 15.8113 24.3373 16.401 24.3373C20.3471 24.3373 23.937 23.3515 26.6277 21.7409L26.6284 21.7446C26.6618 21.7268 26.6993 21.7166 26.7394 21.7166C26.8711 21.7166 26.9778 21.8255 26.9778 21.9601C26.9778 21.9848 26.9732 22.0082 26.9661 22.0311L26.4056 23.5868C26.1104 24.4051 26.5201 25.3127 27.3212 25.6141C27.4975 25.6809 27.6779 25.7121 27.8554 25.7121C28.4842 25.7121 29.0751 25.3171 29.3053 24.6787L31.3336 19.0528C31.609 18.2886 31.2654 17.4532 30.5674 17.0994ZM16.6798 6.47665C19.5376 6.4764 22.1534 7.14891 24.1751 8.26424C24.1751 8.26424 25.4589 9.20839 26.0697 8.30204C26.7706 7.26206 25.371 6.61466 25.371 6.61466C22.8624 5.40936 19.7595 4.69661 16.4009 4.69661C15.8112 4.69661 15.2307 4.72099 14.6584 4.76391V6.59345C15.3151 6.5181 15.9897 6.47665 16.6798 6.47665ZM14.6584 0L14.6584 4.76391C7.13649 5.32572 1.29392 9.47662 1.29392 14.517C1.29392 19.5572 7.13657 23.7085 14.6585 24.2703L14.6584 28.196H2.15655C0.97655 28.196 0.0194241 27.2187 0.0194241 26.0124V2.18384C0.0194241 0.9778 0.97655 0 2.15655 0H14.6584ZM14.6584 6.59345L14.6585 21.4588C9.21619 20.8358 5.07971 17.7462 5.07971 14.0262C5.07971 10.3057 9.21611 7.21621 14.6584 6.59345Z" fill="white" fill-opacity="0.3"/>
</g>
<defs>
<clipPath id="clip0_1242_986">
<rect width="31.4287" height="35.7143" fill="white"/>
</clipPath>
</defs>
</svg>
