<svg width="40" height="36" viewBox="0 0 40 36" fill="none" xmlns="http://www.w3.org/2000/svg">
<g clip-path="url(#clip0_1242_979)">
<g opacity="0.3">
<path d="M11.856 9.37292e-05C17.3022 0.0321534 22.7488 0.0286019 28.1951 0.00226138C29.5526 -0.00424977 30.4833 0.510525 31.1657 1.72643C33.8931 6.58661 36.6748 11.4158 39.4324 16.2587C39.6021 16.5568 39.7783 16.8616 39.8808 17.1861C40.0518 17.7269 40.0617 18.259 39.7582 18.7927C36.8902 23.837 34.0153 28.8775 31.1914 33.9469C30.4939 35.199 29.5451 35.736 28.1462 35.7136C25.4318 35.6703 22.7162 35.701 20.0011 35.701C17.2535 35.701 14.5058 35.6796 11.7585 35.7102C10.4389 35.7249 9.52839 35.2058 8.86486 34.0269C6.12342 29.1559 3.33028 24.3147 0.572461 19.4529C0.328294 19.0225 0.154558 18.5355 0.0348651 18.0528C-0.0787802 17.595 0.101784 17.1703 0.339903 16.752C3.1782 11.7664 6.02148 6.78352 8.81335 1.77132C9.51024 0.520095 10.4563 -0.00809726 11.856 9.37292e-05ZM27.8855 2.15887C25.268 2.18517 22.6502 2.16929 20.0325 2.16939C17.3498 2.16939 14.6671 2.1761 11.9845 2.16426C11.3729 2.16159 10.9418 2.37676 10.6278 2.92941C7.92301 7.69015 5.20704 12.4443 2.48521 17.195C2.21861 17.6603 2.22671 18.0687 2.49253 18.5325C5.19065 23.2401 7.88624 27.9493 10.5572 32.6726C10.92 33.3141 11.3834 33.5557 12.0936 33.5535C17.3451 33.5375 22.5967 33.537 27.8483 33.5535C28.6149 33.5559 29.1114 33.2772 29.499 32.5911C32.1443 27.9097 34.8152 23.243 37.4899 18.5787C37.7739 18.0834 37.7872 17.6554 37.4992 17.1534C34.8063 12.4615 32.1178 7.7669 29.4574 3.05619C29.0838 2.39451 28.6146 2.15173 27.8855 2.15887ZM12.5659 3.54433C17.5408 3.56418 22.516 3.5632 27.4909 3.54504C27.9973 3.54327 28.2872 3.70989 28.5374 4.15107C31.0434 8.57165 33.5651 12.9831 36.0923 17.3913C36.2778 17.7149 36.2879 17.9782 36.1019 18.3032C33.5532 22.7557 31.0112 27.2121 28.4761 31.6724C28.2735 32.0287 28.0191 32.1677 27.6112 32.1655C25.0587 32.1508 22.5061 32.158 19.9535 32.1581C17.4498 32.1581 14.946 32.1485 12.4424 32.167C11.9951 32.1702 11.7252 32.0183 11.5039 31.6284C8.98691 27.1954 6.46086 22.7677 3.92584 18.3453C3.71933 17.9852 3.73387 17.7019 3.93794 17.3461C6.45072 12.9675 8.95696 8.58496 11.4437 4.19123C11.7138 3.71394 12.0246 3.54218 12.5659 3.54433ZM20.7365 6.4059C20.1828 6.37483 19.7204 6.72919 19.5807 7.33009C19.522 7.58264 19.5092 7.85069 19.5087 8.11172C19.5038 10.8255 19.5058 13.5393 19.5056 16.253C19.5056 16.3846 19.4983 16.5165 19.5052 16.6477C19.5206 16.9417 19.3852 17.0515 19.0977 17.0613C18.5293 17.0806 18.4625 17.0294 18.4621 16.4293L18.4623 12.0544C18.4613 11.3252 18.459 10.5961 18.4544 9.86697C18.4521 9.51142 18.4011 9.14265 18.2952 8.80476C18.1532 8.35204 17.794 8.12435 17.3208 8.13264C16.8523 8.14083 16.5013 8.3622 16.3588 8.8239C16.2728 9.1024 16.2109 9.40132 16.2088 9.69146C16.1923 11.9611 16.1872 14.2307 16.1936 16.5003C16.1947 16.8784 16.1168 17.0713 15.6847 17.0697C15.262 17.0682 15.2106 16.8623 15.2137 16.5175C15.2244 15.3169 15.2298 14.1161 15.2113 12.9157C15.2041 12.4584 15.1598 11.9956 15.0728 11.5471C14.9762 11.049 14.6066 10.8142 14.1249 10.7668C13.6511 10.72 13.2039 10.9774 13.0425 11.4398C12.9423 11.7273 12.8942 12.0474 12.8917 12.3534C12.8781 14.1131 12.8851 15.873 12.8851 17.6329C12.8851 19.3763 12.8727 21.1198 12.8893 22.863C12.9012 24.125 13.1393 25.3483 13.6527 26.504C14.4565 28.3133 15.9337 29.162 17.7993 29.4629C21.2695 30.0228 24.1649 28.9779 26.0666 25.8409C27.6527 23.2241 29.4534 20.7409 31.1295 18.1786C31.317 17.8921 31.4284 17.4575 31.375 17.1242C31.1972 16.0136 29.9723 15.6063 29.1278 16.3747C28.1857 17.2319 27.3001 18.1521 26.3716 19.0251C26.215 19.1724 25.9662 19.2193 25.76 19.3126C25.7013 19.1045 25.5926 18.8966 25.5917 18.6883L25.5837 14.519L25.5835 10.3497C25.5834 10.1359 25.588 9.92093 25.5678 9.70873C25.5089 9.09303 25.0499 8.60331 24.454 8.50446C23.9064 8.4136 23.2944 8.74222 23.0784 9.30307C22.9696 9.58571 22.9196 9.9084 22.9177 10.2134C22.9042 12.3186 22.905 14.4239 22.9154 16.5292C22.9173 16.8973 22.8143 17.0605 22.4193 17.0684C21.9898 17.077 21.8571 16.9226 21.8593 16.4947C21.8734 13.6659 21.8667 10.8369 21.8658 8.00804C21.8657 7.8273 21.8741 7.6442 21.8495 7.46633C21.7675 6.87283 21.3035 6.43777 20.7365 6.4059Z" fill="white"/>
</g>
</g>
<defs>
<clipPath id="clip0_1242_979">
<rect width="40" height="35.7143" fill="white"/>
</clipPath>
</defs>
</svg>
