<svg width="20" height="20" viewBox="0 0 20 20" fill="none" xmlns="http://www.w3.org/2000/svg">
<path d="M4 15.4998C4.41783 15.186 4.9372 15 5.5 15C6.88071 15 8 16.1193 8 17.5C8 18.0628 7.81403 18.5822 7.50018 19M16 15.4998C15.5822 15.186 15.0628 15 14.5 15C13.1193 15 12 16.1193 12 17.5C12 18.0628 12.186 18.5822 12.4998 19M15.9999 7.99995C16.9883 7.99918 17.5064 7.98663 17.908 7.78201C18.2843 7.59027 18.5903 7.28431 18.782 6.90798C19 6.48016 19 5.9201 19 4.8V4.2C19 3.0799 19 2.51984 18.782 2.09202C18.5903 1.71569 18.2843 1.40973 17.908 1.21799C17.4802 1 16.9201 1 15.8 1H4.2C3.0799 1 2.51984 1 2.09202 1.21799C1.71569 1.40973 1.40973 1.71569 1.21799 2.09202C1 2.51984 1 3.0799 1 4.2V4.8C1 5.9201 1 6.48016 1.21799 6.90798C1.40973 7.28431 1.71569 7.59027 2.09202 7.78201C2.49359 7.98663 3.01167 7.99918 4.00005 7.99995M15.9999 7.99995C16 8.06459 16 8.13124 16 8.2V15.8C16 16.9201 16 17.4802 15.782 17.908C15.5903 18.2843 15.2843 18.5903 14.908 18.782C14.4802 19 13.9201 19 12.8 19H7.2C6.07989 19 5.51984 19 5.09202 18.782C4.71569 18.5903 4.40973 18.2843 4.21799 17.908C4 17.4802 4 16.9201 4 15.8V8.2C4 8.13124 4 8.06459 4.00005 7.99995M15.9999 7.99995C15.9992 7.01163 15.9866 6.49358 15.782 6.09202C15.5903 5.71569 15.2843 5.40973 14.908 5.21799C14.4802 5 13.9201 5 12.8 5H7.2C6.0799 5 5.51984 5 5.09202 5.21799C4.71569 5.40973 4.40973 5.71569 4.21799 6.09202C4.01338 6.49358 4.00082 7.01163 4.00005 7.99995M12 10C12 11.1046 11.1046 12 10 12C8.89543 12 8 11.1046 8 10C8 8.89543 8.89543 8 10 8C11.1046 8 12 8.89543 12 10Z" stroke="#FFB70A" stroke-width="2" stroke-linecap="round" stroke-linejoin="round"/>
</svg>
