<svg width="16" height="20" viewBox="0 0 16 20" fill="none" xmlns="http://www.w3.org/2000/svg">
<path d="M13 13V15.8C13 16.9201 13 17.4802 12.782 17.908C12.5903 18.2843 12.2843 18.5903 11.908 18.782C11.4802 19 10.9201 19 9.8 19H4.2C3.0799 19 2.51984 19 2.09202 18.782C1.71569 18.5903 1.40973 18.2843 1.21799 17.908C1 17.4802 1 16.9201 1 15.8V3.57143C1 3.04025 1 2.77465 1.05014 2.55496C1.2211 1.80597 1.80597 1.2211 2.55496 1.05014C2.77465 1 3.04025 1 3.57143 1H7M6 16H8M15 2.50003C14.5 2.37601 13.6851 2.37145 13 2.37601M13 2.37601C12.7709 2.37754 12.9094 2.3678 12.6 2.37601C11.7926 2.4012 11.0016 2.73678 11 3.68753C10.9982 4.70037 12 5.00003 13 5.00003C14 5.00003 15 5.23123 15 6.31253C15 7.12512 14.1925 7.48118 13.1861 7.59908C12.3861 7.59908 12 7.62503 11 7.50003M13 2.37601L13 1M13 7.5995V9" stroke="#FFB70A" stroke-width="2" stroke-linecap="round" stroke-linejoin="round"/>
</svg>
