<svg width="24" height="25" viewBox="0 0 24 25" fill="none" xmlns="http://www.w3.org/2000/svg">
<path d="M3.42857 0.6875C1.5375 0.6875 0 2.20098 0 4.0625V20.9375C0 22.799 1.5375 24.3125 3.42857 24.3125H8.68929V16.6238H5.86071V12.5H8.68929V10.7229C8.68929 6.12969 10.8 3.99922 15.3857 3.99922C16.2536 3.99922 17.7536 4.16797 18.3696 4.33672V8.07031C18.0482 8.03867 17.4857 8.01758 16.7839 8.01758C14.5339 8.01758 13.6661 8.85605 13.6661 11.034V12.5H18.1446L17.3732 16.6238H13.6607V24.3125H20.5714C22.4625 24.3125 24 22.799 24 20.9375V4.0625C24 2.20098 22.4625 0.6875 20.5714 0.6875H3.42857Z" fill="#0DBC84"/>
</svg>
