<svg width="24" height="25" viewBox="0 0 24 25" fill="none" xmlns="http://www.w3.org/2000/svg">
<path d="M10.4143 10.1639C10.1023 10.3692 9.83441 10.633 9.62598 10.9402C9.41755 11.2475 9.27263 11.5921 9.1995 11.9545C9.05182 12.6863 9.20552 13.4459 9.62679 14.0662C10.0481 14.6865 10.7024 15.1166 11.4458 15.262C12.1893 15.4074 12.9609 15.2561 13.5911 14.8414C14.2212 14.4267 14.6582 13.7826 14.8059 13.0508C14.9535 12.319 14.7998 11.5593 14.3786 10.9391C13.9573 10.3188 13.303 9.88864 12.5595 9.74326C11.8161 9.59789 11.0444 9.74918 10.4143 10.1639ZM18.0375 6.55684C17.7589 6.28262 17.4214 6.06641 17.0518 5.92402C16.0821 5.54961 13.9661 5.56543 12.6 5.58125C12.3804 5.58125 12.1768 5.58652 12 5.58652C11.8232 5.58652 11.6143 5.58652 11.3893 5.58125C10.0232 5.56543 7.91786 5.54434 6.94821 5.92402C6.57857 6.06641 6.24643 6.28262 5.9625 6.55684C5.67857 6.83105 5.46429 7.16328 5.31964 7.52715C4.93929 8.48164 4.96071 10.5699 4.97143 11.9146C4.97143 12.1309 4.97679 12.3313 4.97679 12.5C4.97679 12.6687 4.97679 12.8691 4.97143 13.0854C4.96071 14.4301 4.93929 16.5184 5.31964 17.4729C5.46429 17.8367 5.68393 18.1637 5.9625 18.4432C6.24107 18.7227 6.57857 18.9336 6.94821 19.076C7.91786 19.4504 10.0339 19.4346 11.4 19.4188C11.6196 19.4188 11.8232 19.4135 12 19.4135C12.1768 19.4135 12.3857 19.4135 12.6107 19.4188C13.9768 19.4346 16.0821 19.4557 17.0518 19.076C17.4214 18.9336 17.7536 18.7174 18.0375 18.4432C18.3214 18.1689 18.5357 17.8367 18.6804 17.4729C19.0661 16.5236 19.0446 14.4459 19.0286 13.0959C19.0286 12.8744 19.0232 12.6687 19.0232 12.4947C19.0232 12.3207 19.0232 12.1203 19.0286 11.8936C19.0446 10.5488 19.0661 8.47109 18.6804 7.5166C18.5357 7.15273 18.3161 6.82578 18.0375 6.54629V6.55684ZM14.4429 8.90352C15.4118 9.54128 16.0838 10.5318 16.3108 11.6573C16.5379 12.7827 16.3015 13.9508 15.6536 14.9047C15.3328 15.377 14.9206 15.7825 14.4406 16.098C13.9606 16.4135 13.4222 16.6328 12.8561 16.7435C11.7128 16.967 10.5261 16.7342 9.55714 16.0965C8.58815 15.4594 7.91594 14.4695 7.68839 13.3446C7.46083 12.2196 7.69657 11.0518 8.34375 10.0979C8.99093 9.1441 9.99652 8.48239 11.1393 8.2584C12.2821 8.0344 13.4685 8.26645 14.4375 8.90352H14.4429ZM16.0071 8.83496C15.8411 8.72422 15.7071 8.56602 15.6268 8.38144C15.5464 8.19687 15.5304 7.99648 15.5679 7.79609C15.6054 7.5957 15.7071 7.42168 15.8464 7.2793C15.9857 7.13691 16.1732 7.04199 16.3714 7.00508C16.5696 6.96816 16.7786 6.98398 16.9661 7.06309C17.1536 7.14219 17.3143 7.26875 17.4268 7.43223C17.5393 7.5957 17.5982 7.79082 17.5982 7.99121C17.5982 8.12305 17.5714 8.25488 17.5232 8.37617C17.475 8.49746 17.3946 8.6082 17.3036 8.70312C17.2125 8.79805 17.0946 8.87187 16.9714 8.92461C16.8482 8.97734 16.7143 9.00371 16.5804 9.00371C16.3768 9.00371 16.1786 8.9457 16.0125 8.83496H16.0071ZM24 4.0625C24 2.20098 22.4625 0.6875 20.5714 0.6875H3.42857C1.5375 0.6875 0 2.20098 0 4.0625V20.9375C0 22.799 1.5375 24.3125 3.42857 24.3125H20.5714C22.4625 24.3125 24 22.799 24 20.9375V4.0625ZM19.125 19.5137C18.1232 20.4998 16.9071 20.8109 15.5357 20.8795C14.1214 20.9586 9.87857 20.9586 8.46429 20.8795C7.09286 20.8109 5.87679 20.4998 4.875 19.5137C3.87321 18.5275 3.55714 17.3305 3.49286 15.9805C3.4125 14.5883 3.4125 10.4117 3.49286 9.01953C3.5625 7.66953 3.87321 6.47246 4.875 5.48633C5.87679 4.5002 7.09821 4.18906 8.46429 4.12578C9.87857 4.04668 14.1214 4.04668 15.5357 4.12578C16.9071 4.19434 18.1232 4.5002 19.125 5.48633C20.1268 6.47246 20.4429 7.66953 20.5071 9.01953C20.5875 10.4064 20.5875 14.5777 20.5071 15.9752C20.4375 17.3252 20.1268 18.5223 19.125 19.5084V19.5137Z" fill="#0DBC84"/>
</svg>
