<svg width="24" height="26" viewBox="0 0 24 26" fill="none" xmlns="http://www.w3.org/2000/svg">
<path d="M20.5714 0.75H3.42857C1.5375 0.75 0 2.31953 0 4.25V21.75C0 23.6805 1.5375 25.25 3.42857 25.25H7.31786L7.2 25.2063C6.91071 22.5758 7.03393 22.0617 8.04107 17.8398C8.25 16.9648 8.49643 15.9258 8.78571 14.6734C8.78571 14.6734 8.39464 13.8641 8.39464 12.6773C8.39464 8.81094 12.4393 8.41172 12.4393 11.3102C12.4393 12.0484 12.15 13.0109 11.8393 14.0336C11.6625 14.6133 11.4857 15.2094 11.3518 15.7836C11.0464 17.1234 12.0107 18.2117 13.3018 18.2117C15.6429 18.2117 17.4375 15.6961 17.4375 12.0648C17.4375 8.84922 15.1714 6.60156 11.9411 6.60156C8.19643 6.60156 6 9.46719 6 12.4313C6 13.5852 6.43929 14.8211 6.98036 15.4938C7.0875 15.625 7.10357 15.7398 7.07143 15.8766C7.0125 16.1336 6.90536 16.582 6.81964 16.9266C6.76607 17.1453 6.72321 17.3258 6.70714 17.3969C6.64821 17.643 6.51964 17.6977 6.26786 17.5773C4.62857 16.7953 3.6 14.3453 3.6 12.3766C3.6 8.13828 6.61071 4.25 12.2893 4.25C16.8536 4.25 20.4 7.56953 20.4 12.0047C20.4 16.6313 17.5446 20.3555 13.575 20.3555C12.2411 20.3555 10.9875 19.65 10.5589 18.8133C10.5589 18.8133 9.9 21.3781 9.73929 22.007C9.47143 23.0625 8.79643 24.3531 8.27143 25.25H20.5714C22.4625 25.25 24 23.6805 24 21.75V4.25C24 2.31953 22.4625 0.75 20.5714 0.75Z" fill="#0DBC84"/>
</svg>
