<svg width="24" height="24" viewBox="0 0 24 24" fill="none" xmlns="http://www.w3.org/2000/svg">
<path d="M12 0.375C5.37097 0.375 0 5.57812 0 12C0 18.4219 5.37097 23.625 12 23.625C18.629 23.625 24 18.4219 24 12C24 5.57812 18.629 0.375 12 0.375ZM17.5645 8.28281C17.3855 10.1203 16.6016 14.5828 16.2048 16.6406C16.0355 17.5125 15.7065 17.8031 15.3871 17.8312C14.6903 17.8922 14.1629 17.3859 13.4855 16.9547C12.4306 16.2844 11.8306 15.8672 10.8097 15.2109C9.62419 14.4563 10.3935 14.0391 11.0661 13.3594C11.2452 13.1812 14.3129 10.4766 14.371 10.2328C14.3806 10.2 14.3855 10.0875 14.3129 10.0266C14.2403 9.96562 14.1387 9.98906 14.0661 10.0031C13.9597 10.025 12.2726 11.1047 9.00484 13.2422C8.52742 13.5609 8.09355 13.7156 7.70323 13.7062C7.27258 13.6969 6.45 13.4719 5.83548 13.2797C5.08548 13.0453 4.48548 12.9187 4.53871 12.5156C4.56452 12.3062 4.8629 12.0922 5.43387 11.8734C8.93064 10.3984 11.2629 9.425 12.4306 8.95312C15.7645 7.6125 16.4565 7.37812 16.9065 7.36875C17.0081 7.36875 17.2258 7.39219 17.371 7.50469C17.4657 7.58538 17.5261 7.69733 17.5403 7.81875C17.5665 7.97205 17.5746 8.12774 17.5645 8.28281Z" fill="#0DBC84"/>
</svg>
