<svg width="24" height="25" viewBox="0 0 24 25" fill="none" xmlns="http://www.w3.org/2000/svg">
<path d="M3.42857 0.6875C1.5375 0.6875 0 2.20098 0 4.0625V20.9375C0 22.799 1.5375 24.3125 3.42857 24.3125H20.5714C22.4625 24.3125 24 22.799 24 20.9375V4.0625C24 2.20098 22.4625 0.6875 20.5714 0.6875H3.42857ZM19.3446 5.11719L13.7839 11.3715L20.325 19.8828H15.2036L11.1964 14.7201L6.60536 19.8828H4.06071L10.0071 13.1908L3.73393 5.11719H8.98393L12.6107 9.83691L16.8 5.11719H19.3446ZM17.3196 18.3852L8.21786 6.53574H6.70179L15.9054 18.3852H17.3143H17.3196Z" fill="#0DBC84"/>
</svg>
