<svg width="27" height="18" viewBox="0 0 27 18" fill="none" xmlns="http://www.w3.org/2000/svg">
<path d="M25.767 2.81719C25.4717 1.70625 24.6045 0.834375 23.5029 0.539062C21.5061 0 13.4998 0 13.4998 0C13.4998 0 5.49356 0 3.49668 0.539062C2.39512 0.834375 1.52793 1.70625 1.23262 2.81719C0.698242 4.82812 0.698242 9.01875 0.698242 9.01875C0.698242 9.01875 0.698242 13.2094 1.23262 15.2203C1.52793 16.3313 2.39512 17.1656 3.49668 17.4609C5.49356 18 13.4998 18 13.4998 18C13.4998 18 21.5061 18 23.5029 17.4609C24.6045 17.1656 25.4717 16.3266 25.767 15.2203C26.3014 13.2094 26.3014 9.01875 26.3014 9.01875C26.3014 9.01875 26.3014 4.82812 25.767 2.81719ZM10.8842 12.825V5.2125L17.5732 9.01875L10.8842 12.825Z" fill="#0DBC84"/>
</svg>
